<svg width="3094" height="658" xmlns="http://www.w3.org/2000/svg" xmlns:xlink="http://www.w3.org/1999/xlink" xml:space="preserve" overflow="hidden"><defs><clipPath id="clip0"><rect x="759" y="541" width="3094" height="658"/></clipPath></defs><g clip-path="url(#clip0)" transform="translate(-759 -541)"><g><g><g><path d="M1068.14 592.888C1039.03 583.053 1018.97 570.463 1007.16 553.94 984.344 522.859 983.557 514.597 983.557 329.688L983.557 161.303 1020.93 161.303 1058.31 161.303 1058.31 279.33 1058.31 397.357 1103.55 397.357 1148.8 397.357 1148.8 279.33 1148.8 161.303 1186.17 161.303 1223.55 161.303 1223.55 316.706 1223.55 472.108 1140.53 472.108 1057.52 472.108 1059.88 485.091C1066.57 518.925 1090.96 529.154 1155.88 524.826L1196.01 522.466 1196.01 555.907C1196.01 577.938 1194.43 590.528 1191.28 592.495 1182.24 598.003 1084.67 598.396 1068.14 592.888Z" fill="#FFFFFF" transform="matrix(1.00064 0 0 -1 1550 1198.51)"/><path d="M2140.22 505.549 2140.22 440.24 2125.66 452.043C2102.85 470.14 2080.03 477.222 2041.87 477.616 1997.8 477.616 1971.44 467.387 1939.58 437.88 1854.2 359.195 1873.87 217.563 1976.95 166.811 1998.59 156.582 2004.1 155.402 2041.87 155.402 2079.24 155.402 2085.14 156.582 2102.85 166.025 2113.86 171.532 2126.45 180.188 2131.57 184.909L2140.22 193.171 2140.22 177.04 2140.22 161.303 2177.6 161.303 2214.97 161.303 2214.97 365.883 2214.97 570.463 2177.6 570.463 2140.22 570.463 2140.22 505.549ZM2100.09 392.636C2120.94 378.473 2136.29 352.507 2139.04 325.361 2145.34 262.413 2092.62 214.416 2031.64 227.792 1987.97 237.627 1963.18 268.708 1963.18 313.952 1963.18 354.081 1979.7 382.407 2012.36 398.144 2036.36 409.16 2078.45 406.799 2100.09 392.636Z" fill="#FFFFFF" transform="matrix(1.00064 0 0 -1 1550 1198.51)"/><path d="M125.895 544.891 96.3886 536.236 95.2084 389.095C94.4215 289.559 95.6018 235.267 98.3558 221.104 107.404 179.794 143.206 157.369 200.252 157.369 244.709 157.369 243.922 156.976 243.922 195.138L243.922 228.185 218.35 228.185C189.236 228.185 174.68 233.693 171.532 245.496 170.352 249.824 169.172 286.019 169.172 325.754L169.172 397.357 206.547 397.357 243.922 397.357 243.922 434.732 243.922 472.108 206.547 472.108 169.172 472.108 169.172 513.417C169.172 561.021 172.319 559.054 125.895 544.891Z" fill="#FFFFFF" transform="matrix(1.00064 0 0 -1 1550 1198.51)"/><path d="M374.145 473.681C286.019 450.076 233.693 360.769 257.299 273.429 269.888 226.218 300.575 189.236 345.425 167.992 370.211 156.189 374.539 155.402 415.061 155.402 455.584 155.402 459.911 156.189 484.304 167.598 549.219 198.679 581.479 253.364 577.545 326.935 574.791 369.424 563.382 396.57 534.268 427.257 492.566 471.714 431.585 489.025 374.145 473.681ZM450.469 397.751C481.55 383.587 503.581 349.753 503.581 315.132 503.581 281.691 483.123 248.643 454.797 235.66 434.732 226.612 398.537 225.825 378.473 234.087 324.574 256.905 310.411 330.869 351.72 376.112 377.293 404.045 417.028 413.094 450.469 397.751Z" fill="#FFFFFF" transform="matrix(1.00064 0 0 -1 1550 1198.51)"/><path d="M761.273 477.222C739.635 472.501 725.865 466.206 710.128 454.01L692.424 440.634 692.424 456.371 692.424 472.108 653.082 472.108 613.74 472.108 613.74 269.495 613.74 66.8819 653.082 66.8819 692.424 66.8819 692.424 127.469 692.424 188.45 712.096 175.073C751.044 149.107 808.091 145.96 854.515 167.992 887.956 183.729 913.922 209.301 929.659 243.135 941.461 267.921 942.248 271.855 942.248 315.132 942.248 359.589 941.855 360.769 927.298 390.276 905.266 435.519 868.285 465.026 821.467 476.042 804.157 479.976 775.437 480.369 761.273 477.222ZM829.336 392.636C837.991 386.735 850.187 373.358 856.088 363.523 896.218 294.674 839.565 211.662 763.634 227.398 733.34 233.693 715.243 247.463 702.653 271.855 679.048 319.459 696.752 377.293 741.602 398.144 765.601 409.16 807.697 406.799 829.336 392.636Z" fill="#FFFFFF" transform="matrix(1.00064 0 0 -1 1550 1198.51)"/><path d="M1675.98 476.042C1618.54 463.846 1571.33 418.209 1556.38 359.982 1534.74 278.543 1569.36 203.006 1643.72 167.992 1668.9 156.189 1672.44 155.402 1717.29 155.402 1775.12 155.402 1798.34 163.271 1831.38 193.564 1854.99 215.202 1858.92 227.398 1843.97 234.48 1839.25 236.841 1826.27 243.922 1814.86 250.217L1794.8 261.626 1785.75 250.217C1772.76 234.087 1749.16 224.251 1720.83 224.251 1679.92 224.251 1651.2 239.201 1636.64 267.921L1628.77 283.265 1748.77 283.265 1868.76 283.265 1868.76 313.952C1868.76 348.179 1861.28 378.866 1846.33 404.045 1831.78 429.224 1797.55 458.338 1771.19 468.173 1745.62 478.009 1702.34 481.55 1675.98 476.042ZM1749.16 401.685C1766.08 394.21 1782.6 375.719 1789.68 356.835L1794.01 346.212 1711.39 346.212 1628.77 346.212 1632.71 356.441C1649.23 400.111 1705.1 421.749 1749.16 401.685Z" fill="#FFFFFF" transform="matrix(1.00064 0 0 -1 1550 1198.51)"/><path d="M1242.04 469.354C1240.86 467.387 1266.82 397.751 1299.48 313.952L1358.88 161.303 1400.98 161.303 1443.08 161.303 1447.01 172.319C1449.37 178.221 1475.34 245.103 1504.84 320.64 1534.74 396.57 1559.92 461.485 1560.71 465.419 1562.68 471.321 1559.14 472.108 1521.76 472.108L1480.84 472.108 1441.9 364.31C1420.26 304.903 1401.37 257.299 1400.19 258.872 1398.62 260.446 1380.52 308.837 1359.28 367.064L1320.72 472.108 1282.17 472.108C1260.92 472.108 1242.82 470.927 1242.04 469.354Z" fill="#FFFFFF" transform="matrix(1.00064 0 0 -1 1550 1198.51)"/></g></g></g><path d="M1121.5 694C1117.55 541.001 1122.82 705.591 1121.5 541L1437.67 541C1468.23 541 1493 562.796 1493 589.683L1493 645.317C1493 672.204 1468.23 694 1437.67 694L1121.5 694Z" fill="#FF0000" fill-rule="evenodd"/><path d="M966 541C1008.53 541 1043 575.474 1043 618L1043 1050C1043 1092.53 1008.53 1127 966 1127L966 1127C923.474 1127 889 1092.53 889 1050L889 618C889 575.474 923.474 541 966 541Z" fill="#FF0000" fill-rule="evenodd"/><path d="M759.94 694C757.461 541.001 760.767 705.591 759.94 541L958.288 541C977.459 541 993 562.796 993 589.683L993 645.317C993 672.204 977.459 694 958.288 694L759.94 694Z" fill="#FF0000" fill-rule="evenodd"/><path d="M792.199 684C811.417 659.728 852.372 660.146 883.675 684.931 914.978 709.717 924.775 749.486 905.557 773.757 916.696 743.089 896.328 703.212 860.065 684.691 836.174 672.489 810.183 672.224 792.199 684Z" fill="#FF0000" fill-rule="evenodd"/></g></svg>