<svg width="3038" height="997" xmlns="http://www.w3.org/2000/svg" xmlns:xlink="http://www.w3.org/1999/xlink" xml:space="preserve" overflow="hidden"><g transform="translate(-815 -254)"><g><g><g><path d="M1068.14 592.888C1039.03 583.053 1018.97 570.463 1007.16 553.94 984.344 522.859 983.557 514.597 983.557 329.688L983.557 161.303 1020.93 161.303 1058.31 161.303 1058.31 279.33 1058.31 397.357 1103.55 397.357 1148.8 397.357 1148.8 279.33 1148.8 161.303 1186.17 161.303 1223.55 161.303 1223.55 316.706 1223.55 472.108 1140.53 472.108 1057.52 472.108 1059.88 485.091C1066.57 518.925 1090.96 529.154 1155.88 524.826L1196.01 522.466 1196.01 555.907C1196.01 577.938 1194.43 590.528 1191.28 592.495 1182.24 598.003 1084.67 598.396 1068.14 592.888Z" fill="#FFFFFF" transform="matrix(1.00064 0 0 -1 1550 1198.51)"/><path d="M2140.22 505.549 2140.22 440.24 2125.66 452.043C2102.85 470.14 2080.03 477.222 2041.87 477.616 1997.8 477.616 1971.44 467.387 1939.58 437.88 1854.2 359.195 1873.87 217.563 1976.95 166.811 1998.59 156.582 2004.1 155.402 2041.87 155.402 2079.24 155.402 2085.14 156.582 2102.85 166.025 2113.86 171.532 2126.45 180.188 2131.57 184.909L2140.22 193.171 2140.22 177.04 2140.22 161.303 2177.6 161.303 2214.97 161.303 2214.97 365.883 2214.97 570.463 2177.6 570.463 2140.22 570.463 2140.22 505.549ZM2100.09 392.636C2120.94 378.473 2136.29 352.507 2139.04 325.361 2145.34 262.413 2092.62 214.416 2031.64 227.792 1987.97 237.627 1963.18 268.708 1963.18 313.952 1963.18 354.081 1979.7 382.407 2012.36 398.144 2036.36 409.16 2078.45 406.799 2100.09 392.636Z" fill="#FFFFFF" transform="matrix(1.00064 0 0 -1 1550 1198.51)"/><path d="M125.895 544.891 96.3886 536.236 95.2084 389.095C94.4215 289.559 95.6018 235.267 98.3558 221.104 107.404 179.794 143.206 157.369 200.252 157.369 244.709 157.369 243.922 156.976 243.922 195.138L243.922 228.185 218.35 228.185C189.236 228.185 174.68 233.693 171.532 245.496 170.352 249.824 169.172 286.019 169.172 325.754L169.172 397.357 206.547 397.357 243.922 397.357 243.922 434.732 243.922 472.108 206.547 472.108 169.172 472.108 169.172 513.417C169.172 561.021 172.319 559.054 125.895 544.891Z" fill="#FFFFFF" transform="matrix(1.00064 0 0 -1 1550 1198.51)"/><path d="M374.145 473.681C286.019 450.076 233.693 360.769 257.299 273.429 269.888 226.218 300.575 189.236 345.425 167.992 370.211 156.189 374.539 155.402 415.061 155.402 455.584 155.402 459.911 156.189 484.304 167.598 549.219 198.679 581.479 253.364 577.545 326.935 574.791 369.424 563.382 396.57 534.268 427.257 492.566 471.714 431.585 489.025 374.145 473.681ZM450.469 397.751C481.55 383.587 503.581 349.753 503.581 315.132 503.581 281.691 483.123 248.643 454.797 235.66 434.732 226.612 398.537 225.825 378.473 234.087 324.574 256.905 310.411 330.869 351.72 376.112 377.293 404.045 417.028 413.094 450.469 397.751Z" fill="#FFFFFF" transform="matrix(1.00064 0 0 -1 1550 1198.51)"/><path d="M761.273 477.222C739.635 472.501 725.865 466.206 710.128 454.01L692.424 440.634 692.424 456.371 692.424 472.108 653.082 472.108 613.74 472.108 613.74 269.495 613.74 66.8819 653.082 66.8819 692.424 66.8819 692.424 127.469 692.424 188.45 712.096 175.073C751.044 149.107 808.091 145.96 854.515 167.992 887.956 183.729 913.922 209.301 929.659 243.135 941.461 267.921 942.248 271.855 942.248 315.132 942.248 359.589 941.855 360.769 927.298 390.276 905.266 435.519 868.285 465.026 821.467 476.042 804.157 479.976 775.437 480.369 761.273 477.222ZM829.336 392.636C837.991 386.735 850.187 373.358 856.088 363.523 896.218 294.674 839.565 211.662 763.634 227.398 733.34 233.693 715.243 247.463 702.653 271.855 679.048 319.459 696.752 377.293 741.602 398.144 765.601 409.16 807.697 406.799 829.336 392.636Z" fill="#FFFFFF" transform="matrix(1.00064 0 0 -1 1550 1198.51)"/><path d="M1675.98 476.042C1618.54 463.846 1571.33 418.209 1556.38 359.982 1534.74 278.543 1569.36 203.006 1643.72 167.992 1668.9 156.189 1672.44 155.402 1717.29 155.402 1775.12 155.402 1798.34 163.271 1831.38 193.564 1854.99 215.202 1858.92 227.398 1843.97 234.48 1839.25 236.841 1826.27 243.922 1814.86 250.217L1794.8 261.626 1785.75 250.217C1772.76 234.087 1749.16 224.251 1720.83 224.251 1679.92 224.251 1651.2 239.201 1636.64 267.921L1628.77 283.265 1748.77 283.265 1868.76 283.265 1868.76 313.952C1868.76 348.179 1861.28 378.866 1846.33 404.045 1831.78 429.224 1797.55 458.338 1771.19 468.173 1745.62 478.009 1702.34 481.55 1675.98 476.042ZM1749.16 401.685C1766.08 394.21 1782.6 375.719 1789.68 356.835L1794.01 346.212 1711.39 346.212 1628.77 346.212 1632.71 356.441C1649.23 400.111 1705.1 421.749 1749.16 401.685Z" fill="#FFFFFF" transform="matrix(1.00064 0 0 -1 1550 1198.51)"/><path d="M1242.04 469.354C1240.86 467.387 1266.82 397.751 1299.48 313.952L1358.88 161.303 1400.98 161.303 1443.08 161.303 1447.01 172.319C1449.37 178.221 1475.34 245.103 1504.84 320.64 1534.74 396.57 1559.92 461.485 1560.71 465.419 1562.68 471.321 1559.14 472.108 1521.76 472.108L1480.84 472.108 1441.9 364.31C1420.26 304.903 1401.37 257.299 1400.19 258.872 1398.62 260.446 1380.52 308.837 1359.28 367.064L1320.72 472.108 1282.17 472.108C1260.92 472.108 1242.82 470.927 1242.04 469.354Z" fill="#FFFFFF" transform="matrix(1.00064 0 0 -1 1550 1198.51)"/></g></g></g><g><g><g><g><path d="M629.168 929.629 552.036 929.629 552.036 983.555C511.588 986.184 471.08 992.905 430.524 1003.77L430.524 1031.48 748.888 1031.48 748.888 1003.77C709.03 992.94 669.123 986.234 629.168 983.592ZM551.263 725.185C558.167 725.185 563.781 730.789 563.781 737.706 563.781 744.635 558.179 750.237 551.263 750.237L454.888 750.237C468.661 812.026 523.776 858.208 589.717 858.208 655.658 858.208 710.763 812.026 724.534 750.237L628.174 750.237C621.267 750.237 615.653 744.635 615.653 737.706 615.653 730.789 621.258 725.185 628.174 725.185L727.754 725.185C727.814 723.48 727.89 721.772 727.89 720.039L727.89 697.468 628.174 697.468C621.267 697.468 615.653 691.879 615.653 684.95 615.653 678.018 621.258 672.429 628.174 672.429L727.89 672.429 727.89 644.712 628.174 644.712C621.267 644.712 615.653 639.107 615.653 632.178 615.653 625.262 621.258 619.66 628.174 619.66L727.89 619.66 727.89 591.941 628.174 591.941C621.267 591.941 615.653 586.351 615.653 579.422 615.653 572.493 621.258 566.901 628.174 566.901L727.89 566.901 727.89 548.558C727.89 545.4 727.729 542.267 727.534 539.159L628.174 539.159C621.267 539.159 615.653 533.57 615.653 526.641 615.653 519.709 621.258 514.12 628.174 514.12L723.565 514.12C708.232 454.495 654.136 410.41 589.704 410.41 525.289 410.41 471.168 454.495 455.872 514.132L551.263 514.132C558.167 514.132 563.781 519.734 563.781 526.651 563.781 533.583 558.179 539.185 551.263 539.185L451.903 539.185C451.705 542.292 451.544 545.412 451.544 548.57L451.544 566.914 551.263 566.914C558.167 566.914 563.781 572.515 563.781 579.435 563.781 586.364 558.179 591.966 551.263 591.966L451.544 591.966 451.544 619.685 551.263 619.685C558.167 619.685 563.781 625.274 563.781 632.203 563.781 639.12 558.179 644.722 551.263 644.722L451.544 644.722 451.544 672.441 551.263 672.441C558.167 672.441 563.781 678.043 563.781 684.959 563.781 691.892 558.179 697.481 551.263 697.481L451.544 697.481 451.544 720.064C451.544 721.794 451.62 723.489 451.68 725.197L551.263 725.197ZM755.606 689.876 755.606 720.064C755.606 811.535 681.188 885.953 589.717 885.953 498.246 885.953 423.815 811.523 423.815 720.039L423.815 689.85 396.099 689.85 396.099 720.039C396.099 826.793 482.95 913.644 589.704 913.644 696.449 913.644 783.3 826.793 783.3 720.039L783.3 689.85 755.584 689.85Z" fill="#F2633C" transform="matrix(1 0 0 1.00025 615.101 153.364)"/></g><g><path d="M435.966 191.04C453.252 208.621 470.111 226.572 487.926 243.502 497.535 252.655 513.664 251.574 523.163 242.2 526.629 238.772 529.551 234.005 530.891 229.336 535.536 213.106 539.38 196.654 543.497 180.412 533.828 173.188 531.8 165.914 537.477 159.464 542.22 154.058 550.07 153.726 555.241 158.714 561.227 164.489 560.192 171.848 552.231 178.827 560.035 196.126 567.539 213.659 575.783 230.835 585.392 250.861 610.888 252.508 623.529 234.238 624.548 232.776 625.482 231.265 626.404 229.754 636.173 213.695 645.926 197.625 654.466 183.557 652.944 177.328 650.842 172.807 651.003 168.359 651.198 162.744 655.24 159.181 661.065 158.641 667.267 158.063 672.048 160.496 674.111 166.602 676.017 172.229 674.825 177.82 669.503 180.473 664.506 182.98 664.786 186.101 665.424 190.425 667.943 207.294 670.34 224.176 672.551 241.082 674.052 252.52 679.027 261.305 690.206 265.568 701.891 270.041 711.83 266.821 720.75 258.553 733.762 246.475 746.982 234.607 758.962 223.697 759.195 217.799 758.556 212.798 759.871 208.388 760.632 205.845 764.268 203.412 767.13 202.405 774.084 199.972 781.161 204.862 782.306 212.221 783.545 220.207 778.667 225.318 768.005 226.535 765.265 244.092 761.604 261.76 759.956 279.611 758.125 299.429 777.525 313.595 796.19 306.494 818.367 298.053 840.224 288.753 862.105 279.882 862.241 267.448 866.984 261.12 875.363 261.895 882.059 262.509 887.192 268.726 886.381 275.213 885.227 284.477 879.194 287.598 867.006 285.005 833.269 332.847 799.458 380.8 765.608 428.816 746 410.917 722.656 400.877 698.66 393.161 669.541 383.798 639.932 375.482 610.013 369.141 571.091 360.91 531.542 356.855 491.6 360.516 487.199 360.922 482.802 361.636 478.49 362.558 474.19 363.467 469.976 364.829 465.122 366.156 462.087 351.414 459.052 336.707 456.017 321.987 447.578 281.184 439.136 240.369 430.744 199.554 430.156 196.642 429.946 194.406 425.942 193.792 417.144 192.452 413.238 185.978 415.644 178.041 417.723 171.173 424.602 167.978 431.641 170.607 438.683 173.237 441.089 180.559 437.428 188.263 437.06 189.037 436.629 189.774 435.966 191.04" fill="#FFFFFF" transform="matrix(1 0 0 1.00025 615.101 153.364)"/></g></g></g></g></g></svg>