<svg width="2963" height="1053" xmlns="http://www.w3.org/2000/svg" xmlns:xlink="http://www.w3.org/1999/xlink" xml:space="preserve" overflow="hidden"><g transform="translate(-890 -261)"><g><g><g><path d="M1068.14 592.888C1039.03 583.053 1018.97 570.463 1007.16 553.94 984.344 522.859 983.557 514.597 983.557 329.688L983.557 161.303 1020.93 161.303 1058.31 161.303 1058.31 279.33 1058.31 397.357 1103.55 397.357 1148.8 397.357 1148.8 279.33 1148.8 161.303 1186.17 161.303 1223.55 161.303 1223.55 316.706 1223.55 472.108 1140.53 472.108 1057.52 472.108 1059.88 485.091C1066.57 518.925 1090.96 529.154 1155.88 524.826L1196.01 522.466 1196.01 555.907C1196.01 577.938 1194.43 590.528 1191.28 592.495 1182.24 598.003 1084.67 598.396 1068.14 592.888Z" fill="#FFFFFF" transform="matrix(1.00064 0 0 -1 1550 1198.51)"/><path d="M2140.22 505.549 2140.22 440.24 2125.66 452.043C2102.85 470.14 2080.03 477.222 2041.87 477.616 1997.8 477.616 1971.44 467.387 1939.58 437.88 1854.2 359.195 1873.87 217.563 1976.95 166.811 1998.59 156.582 2004.1 155.402 2041.87 155.402 2079.24 155.402 2085.14 156.582 2102.85 166.025 2113.86 171.532 2126.45 180.188 2131.57 184.909L2140.22 193.171 2140.22 177.04 2140.22 161.303 2177.6 161.303 2214.97 161.303 2214.97 365.883 2214.97 570.463 2177.6 570.463 2140.22 570.463 2140.22 505.549ZM2100.09 392.636C2120.94 378.473 2136.29 352.507 2139.04 325.361 2145.34 262.413 2092.62 214.416 2031.64 227.792 1987.97 237.627 1963.18 268.708 1963.18 313.952 1963.18 354.081 1979.7 382.407 2012.36 398.144 2036.36 409.16 2078.45 406.799 2100.09 392.636Z" fill="#FFFFFF" transform="matrix(1.00064 0 0 -1 1550 1198.51)"/><path d="M125.895 544.891 96.3886 536.236 95.2084 389.095C94.4215 289.559 95.6018 235.267 98.3558 221.104 107.404 179.794 143.206 157.369 200.252 157.369 244.709 157.369 243.922 156.976 243.922 195.138L243.922 228.185 218.35 228.185C189.236 228.185 174.68 233.693 171.532 245.496 170.352 249.824 169.172 286.019 169.172 325.754L169.172 397.357 206.547 397.357 243.922 397.357 243.922 434.732 243.922 472.108 206.547 472.108 169.172 472.108 169.172 513.417C169.172 561.021 172.319 559.054 125.895 544.891Z" fill="#FFFFFF" transform="matrix(1.00064 0 0 -1 1550 1198.51)"/><path d="M374.145 473.681C286.019 450.076 233.693 360.769 257.299 273.429 269.888 226.218 300.575 189.236 345.425 167.992 370.211 156.189 374.539 155.402 415.061 155.402 455.584 155.402 459.911 156.189 484.304 167.598 549.219 198.679 581.479 253.364 577.545 326.935 574.791 369.424 563.382 396.57 534.268 427.257 492.566 471.714 431.585 489.025 374.145 473.681ZM450.469 397.751C481.55 383.587 503.581 349.753 503.581 315.132 503.581 281.691 483.123 248.643 454.797 235.66 434.732 226.612 398.537 225.825 378.473 234.087 324.574 256.905 310.411 330.869 351.72 376.112 377.293 404.045 417.028 413.094 450.469 397.751Z" fill="#FFFFFF" transform="matrix(1.00064 0 0 -1 1550 1198.51)"/><path d="M761.273 477.222C739.635 472.501 725.865 466.206 710.128 454.01L692.424 440.634 692.424 456.371 692.424 472.108 653.082 472.108 613.74 472.108 613.74 269.495 613.74 66.8819 653.082 66.8819 692.424 66.8819 692.424 127.469 692.424 188.45 712.096 175.073C751.044 149.107 808.091 145.96 854.515 167.992 887.956 183.729 913.922 209.301 929.659 243.135 941.461 267.921 942.248 271.855 942.248 315.132 942.248 359.589 941.855 360.769 927.298 390.276 905.266 435.519 868.285 465.026 821.467 476.042 804.157 479.976 775.437 480.369 761.273 477.222ZM829.336 392.636C837.991 386.735 850.187 373.358 856.088 363.523 896.218 294.674 839.565 211.662 763.634 227.398 733.34 233.693 715.243 247.463 702.653 271.855 679.048 319.459 696.752 377.293 741.602 398.144 765.601 409.16 807.697 406.799 829.336 392.636Z" fill="#FFFFFF" transform="matrix(1.00064 0 0 -1 1550 1198.51)"/><path d="M1675.98 476.042C1618.54 463.846 1571.33 418.209 1556.38 359.982 1534.74 278.543 1569.36 203.006 1643.72 167.992 1668.9 156.189 1672.44 155.402 1717.29 155.402 1775.12 155.402 1798.34 163.271 1831.38 193.564 1854.99 215.202 1858.92 227.398 1843.97 234.48 1839.25 236.841 1826.27 243.922 1814.86 250.217L1794.8 261.626 1785.75 250.217C1772.76 234.087 1749.16 224.251 1720.83 224.251 1679.92 224.251 1651.2 239.201 1636.64 267.921L1628.77 283.265 1748.77 283.265 1868.76 283.265 1868.76 313.952C1868.76 348.179 1861.28 378.866 1846.33 404.045 1831.78 429.224 1797.55 458.338 1771.19 468.173 1745.62 478.009 1702.34 481.55 1675.98 476.042ZM1749.16 401.685C1766.08 394.21 1782.6 375.719 1789.68 356.835L1794.01 346.212 1711.39 346.212 1628.77 346.212 1632.71 356.441C1649.23 400.111 1705.1 421.749 1749.16 401.685Z" fill="#FFFFFF" transform="matrix(1.00064 0 0 -1 1550 1198.51)"/><path d="M1242.04 469.354C1240.86 467.387 1266.82 397.751 1299.48 313.952L1358.88 161.303 1400.98 161.303 1443.08 161.303 1447.01 172.319C1449.37 178.221 1475.34 245.103 1504.84 320.64 1534.74 396.57 1559.92 461.485 1560.71 465.419 1562.68 471.321 1559.14 472.108 1521.76 472.108L1480.84 472.108 1441.9 364.31C1420.26 304.903 1401.37 257.299 1400.19 258.872 1398.62 260.446 1380.52 308.837 1359.28 367.064L1320.72 472.108 1282.17 472.108C1260.92 472.108 1242.82 470.927 1242.04 469.354Z" fill="#FFFFFF" transform="matrix(1.00064 0 0 -1 1550 1198.51)"/></g></g></g><g><g><g><g><path d="M655.929 969.169 575.517 969.169 575.517 1025.39C533.348 1028.13 491.116 1035.14 448.836 1046.46L448.836 1075.36 780.741 1075.36 780.741 1046.46C739.188 1035.17 697.583 1028.18 655.929 1025.43ZM574.71 756.029C581.907 756.029 587.761 761.873 587.761 769.083 587.761 776.307 581.921 782.147 574.71 782.147L474.236 782.147C488.595 846.565 546.054 894.711 614.8 894.711 683.546 894.711 740.995 846.565 755.351 782.147L654.893 782.147C647.692 782.147 641.839 776.307 641.839 769.083 641.839 761.873 647.682 756.029 654.893 756.029L758.708 756.029C758.771 754.252 758.849 752.472 758.849 750.665L758.849 727.134 654.893 727.134C647.692 727.134 641.839 721.307 641.839 714.084 641.839 706.857 647.682 701.03 654.893 701.03L758.849 701.03 758.849 672.134 654.893 672.134C647.692 672.134 641.839 666.291 641.839 659.067 641.839 651.857 647.682 646.017 654.893 646.017L758.849 646.017 758.849 617.118 654.893 617.118C647.692 617.118 641.839 611.291 641.839 604.067 641.839 596.844 647.682 591.013 654.893 591.013L758.849 591.013 758.849 571.89C758.849 568.598 758.682 565.332 758.479 562.092L654.893 562.092C647.692 562.092 641.839 556.265 641.839 549.041 641.839 541.814 647.682 535.987 654.893 535.987L754.341 535.987C738.355 473.826 681.958 427.866 614.787 427.866 547.631 427.866 491.208 473.826 475.262 536L574.71 536C581.907 536 587.761 541.84 587.761 549.051 587.761 556.278 581.921 562.118 574.71 562.118L471.124 562.118C470.917 565.358 470.75 568.611 470.75 571.903L470.75 591.027 574.71 591.027C581.907 591.027 587.761 596.867 587.761 604.081 587.761 611.304 581.921 617.144 574.71 617.144L470.75 617.144 470.75 646.043 574.71 646.043C581.907 646.043 587.761 651.87 587.761 659.094 587.761 666.304 581.921 672.144 574.71 672.144L470.75 672.144 470.75 701.043 574.71 701.043C581.907 701.043 587.761 706.883 587.761 714.093 587.761 721.32 581.921 727.147 574.71 727.147L470.75 727.147 470.75 750.691C470.75 752.495 470.829 754.262 470.891 756.043L574.71 756.043ZM787.745 719.219 787.745 750.691C787.745 846.053 710.162 923.636 614.8 923.636 519.438 923.636 441.842 846.04 441.842 750.665L441.842 719.192 412.947 719.192 412.947 750.665C412.947 861.96 503.492 952.505 614.787 952.505 726.072 952.505 816.617 861.96 816.617 750.665L816.617 719.192 787.722 719.192Z" fill="#E97132" transform="matrix(1.00005 0 0 1 624.885 160.23)"/></g><g><path d="M454.509 199.165C472.531 217.495 490.107 236.209 508.679 253.859 518.697 263.402 535.512 262.275 545.415 252.501 549.028 248.928 552.074 243.958 553.471 239.091 558.315 222.17 562.322 205.019 566.614 188.086 556.534 180.554 554.419 172.971 560.338 166.246 565.283 160.611 573.467 160.265 578.858 165.465 585.098 171.485 584.019 179.158 575.72 186.433 583.855 204.468 591.679 222.746 600.273 240.653 610.291 261.532 636.871 263.248 650.05 244.201 651.112 242.677 652.086 241.101 653.047 239.526 663.232 222.785 673.4 206.031 682.303 191.365 680.716 184.87 678.525 180.157 678.693 175.52 678.896 169.666 683.109 165.952 689.182 165.388 695.649 164.786 700.633 167.322 702.784 173.689 704.771 179.555 703.528 185.383 697.98 188.15 692.77 190.763 693.061 194.016 693.727 198.525 696.354 216.111 698.852 233.711 701.157 251.336 702.722 263.261 707.909 272.419 719.563 276.864 731.745 281.526 742.107 278.17 751.406 269.55 764.971 256.959 778.753 244.585 791.243 233.211 791.486 227.063 790.82 221.85 792.191 217.251 792.985 214.6 796.775 212.064 799.759 211.014 807.009 208.477 814.387 213.575 815.581 221.248 816.873 229.573 811.787 234.902 800.671 236.17 797.815 254.474 793.998 272.893 792.28 291.504 790.371 312.165 810.596 326.934 830.055 319.53 853.175 310.73 875.961 301.034 898.774 291.786 898.915 278.823 903.86 272.227 912.595 273.034 919.576 273.674 924.928 280.156 924.082 286.919 922.879 296.577 916.589 299.83 903.883 297.128 868.711 347.005 833.461 396.997 798.172 447.056 777.73 428.394 753.393 417.928 728.377 409.884 698.019 400.122 667.15 391.452 635.96 384.842 595.381 376.26 554.15 372.034 512.509 375.851 507.922 376.274 503.338 377.018 498.842 377.979 494.359 378.926 489.966 380.346 484.906 381.73 481.742 366.361 478.577 351.028 475.413 335.682 466.615 293.144 457.814 250.593 449.066 208.042 448.452 205.006 448.233 202.675 444.059 202.034 434.887 200.638 430.814 193.888 433.323 185.614 435.49 178.453 442.662 175.123 450 177.864 457.342 180.605 459.851 188.239 456.034 196.271 455.65 197.077 455.201 197.846 454.509 199.165" fill="#E97132" transform="matrix(1.00005 0 0 1 624.885 160.23)"/></g></g></g></g></g></svg>