<svg width="231" height="191" xmlns="http://www.w3.org/2000/svg" xmlns:xlink="http://www.w3.org/1999/xlink" xml:space="preserve" overflow="hidden"><defs><clipPath id="clip0"><rect x="896" y="37" width="231" height="191"/></clipPath></defs><g clip-path="url(#clip0)" transform="translate(-896 -37)"><path d="M90.09 77.8251 73.2944 115.997C71.2653 120.608 66.7033 123.585 61.6654 123.585L19.635 123.585C15.1698 123.585 11.55 119.965 11.55 115.5 11.55 111.035 15.1698 107.415 19.635 107.415L59.4044 107.415 78.461 64.1046C82.9126 53.987 97.2674 53.987 101.719 64.1046L140.91 153.175 157.706 115.003C159.735 110.392 164.297 107.415 169.335 107.415L211.365 107.415C215.83 107.415 219.45 111.035 219.45 115.5 219.45 119.965 215.83 123.585 211.365 123.585L171.596 123.585 152.539 166.895C148.087 177.013 133.733 177.013 129.281 166.895L90.09 77.8251Z" fill-rule="evenodd" transform="matrix(1 0 0 1.00091 896 21.3615)"/><text font-family="Arial,Arial_MSFontService,sans-serif" font-weight="700" font-size="5" transform="matrix(2.31 0 0 2.3121 896 287)">Created by Styfico</text><text font-family="Arial,Arial_MSFontService,sans-serif" font-weight="700" font-size="5" transform="matrix(2.31 0 0 2.3121 896 299)">from the Noun Project</text></g></svg>