<svg xmlns:inkscape="http://www.inkscape.org/namespaces/inkscape" xmlns:sodipodi="http://sodipodi.sourceforge.net/DTD/sodipodi-0.dtd" xmlns="http://www.w3.org/2000/svg" xmlns:svg="http://www.w3.org/2000/svg" xmlns:rdf="http://www.w3.org/1999/02/22-rdf-syntax-ns#" xmlns:cc="http://creativecommons.org/ns#" xmlns:dc="http://purl.org/dc/elements/1.1/" viewBox="0 0 10.583333 13.2291675" version="1.1" x="0px" y="0px"><g><path style="color:#000000;paint-order:fill markers stroke;" d="M 4.1023315,0.79349262 A 0.26461045,0.26461045 0 0 0 3.8367163,1.0591096 v 0.19327 H 2.7096522 c -0.4699662,0 -0.8573109,0.387891 -0.8573109,0.857829 v 6.823872 c 0,0.469939 0.3873447,0.855762 0.8573109,0.855762 h 5.1640263 c 0.4699661,0 0.8573108,-0.385823 0.8573135,-0.855762 v -6.823872 c 0,-0.469938 -0.3873474,-0.857829 -0.8573135,-0.857829 H 6.746617 v -0.19327 A 0.26461045,0.26461045 0 0 0 6.4830656,0.79349262 Z M 4.365883,1.3226596 h 1.8515674 v 0.389123 H 4.365883 Z m -1.6562308,0.459403 h 1.1270641 v 0.195337 a 0.26461045,0.26461045 0 0 0 0.2656152,0.26355 h 2.3807341 a 0.26461045,0.26461045 0 0 0 0.2635514,-0.26355 v -0.195337 h 1.1270615 c 0.1861476,0 0.3281468,0.142395 0.3281468,0.328146 v 6.823872 c 0,0.185751 -0.1419992,0.326079 -0.3281468,0.326079 H 2.7096522 c -0.186145,0 -0.3281442,-0.140328 -0.3281442,-0.326079 v -6.823872 c 0,-0.185751 0.1419992,-0.328146 0.3281442,-0.328146 z m 1.814359,1.288811 a 0.26458349,0.26458349 0 0 0 -0.1834515,0.08423 L 3.7566164,3.7819406 3.5065031,3.5297596 a 0.26458349,0.26458349 0 0 0 -0.3731048,-0.0036 0.26458349,0.26458349 0 0 0 -0.00362,0.374655 l 0.4449339,0.449585 a 0.26460995,0.26460995 0 0 0 0.3808571,-0.0041 L 4.729166,3.5143096 A 0.26458349,0.26458349 0 0 0 4.715222,3.1412056 0.26458349,0.26458349 0 0 0 4.5240183,3.0709256 Z m 1.0976081,0.413928 a 0.26458349,0.26458349 0 0 0 -0.2635488,0.265617 0.26458349,0.26458349 0 0 0 0.2635488,0.264066 H 7.2664809 A 0.26458349,0.26458349 0 0 0 7.5300297,3.7504186 0.26458349,0.26458349 0 0 0 7.2664809,3.4848016 Z m -1.0976081,1.474845 a 0.26458349,0.26458349 0 0 0 -0.1834515,0.08372 L 3.7566164,5.6707146 3.5065031,5.4185336 a 0.26458349,0.26458349 0 0 0 -0.3731048,-0.0036 0.26458349,0.26458349 0 0 0 -0.00362,0.374654 l 0.4449339,0.449585 a 0.26460995,0.26460995 0 0 0 0.3808571,-0.0062 l 0.7735919,-0.829942 a 0.26458349,0.26458349 0 0 0 -0.013944,-0.373104 0.26458349,0.26458349 0 0 0 -0.1912037,-0.07028 z m 1.0976081,0.413928 a 0.26458349,0.26458349 0 0 0 -0.2635488,0.265617 0.26458349,0.26458349 0 0 0 0.2635488,0.26355 H 7.2664809 A 0.26458349,0.26458349 0 0 0 7.5300297,5.6391916 0.26458349,0.26458349 0 0 0 7.2664809,5.3735746 Z M 4.5240112,6.8484206 A 0.26458349,0.26458349 0 0 0 4.3405597,6.9321366 L 3.7566164,7.5589716 3.5065031,7.3052396 a 0.26458349,0.26458349 0 0 0 -0.3731048,-0.0021 0.26458349,0.26458349 0 0 0 -0.00362,0.37517 l 0.4449339,0.449069 a 0.26460995,0.26460995 0 0 0 0.3808571,-0.0057 L 4.729166,7.2917556 A 0.26458349,0.26458349 0 0 0 4.715222,6.9186516 0.26458349,0.26458349 0 0 0 4.5240183,6.8483716 Z m 1.0976081,0.413928 a 0.26458349,0.26458349 0 0 0 -0.2635488,0.265617 0.26458349,0.26458349 0 0 0 0.2635488,0.26355 h 1.6448616 a 0.26458349,0.26458349 0 0 0 0.2635488,-0.26355 0.26458349,0.26458349 0 0 0 -0.2635488,-0.265617 z" fill="#000000" fill-rule="evenodd" stroke-width="1" stroke-linecap="round" stroke-linejoin="round"/></g><text x="0" y="25.583334" fill="#000000" font-size="5px" font-weight="bold" font-family="'Helvetica Neue', Helvetica, Arial-Unicode, Arial, Sans-serif">Created by Alzam</text><text x="0" y="30.583334" fill="#000000" font-size="5px" font-weight="bold" font-family="'Helvetica Neue', Helvetica, Arial-Unicode, Arial, Sans-serif">from the Noun Project</text></svg>