<svg width="213" height="218" xmlns="http://www.w3.org/2000/svg" xmlns:xlink="http://www.w3.org/1999/xlink" xml:space="preserve" overflow="hidden"><defs><clipPath id="clip0"><rect x="54" y="8" width="213" height="218"/></clipPath></defs><g clip-path="url(#clip0)" transform="translate(-54 -8)"><path d="M185.913 78.7177 173.708 76.8903 170.045 68.142 177.371 58.1782C181.646 52.4811 181.034 44.3447 175.949 39.2594L163.951 27.2614C158.866 22.1762 150.729 21.5643 145.032 25.839L135.068 33.165 126.32 29.502 124.493 17.2975C123.476 10.1781 117.373 4.8862 110.047 4.8862L92.964 4.8862C85.8446 4.8862 79.5356 10.1781 78.5186 17.2975L76.6911 29.502 67.9429 33.165 57.979 25.839C52.2819 21.5641 44.1455 22.176 39.0603 27.2614L27.0623 39.2594C21.9771 44.3447 21.3652 52.4811 25.6401 58.1782L32.9661 68.142 29.3031 76.8903 17.0984 78.7177C9.97906 79.7348 4.68714 85.8371 4.68714 93.1631L4.68714 110.246C4.68714 117.366 9.97906 123.675 17.0984 124.692L29.3031 126.519 32.9661 135.267 25.6401 145.231C21.3652 150.928 21.9771 159.065 27.0623 164.15L39.0603 176.148C44.1455 181.233 52.2819 181.845 57.979 177.57L67.9429 170.244 76.6911 173.907 78.5186 186.112C79.5356 193.231 85.6379 198.523 92.964 198.523L110.047 198.523C117.167 198.523 123.476 193.231 124.493 186.112L126.32 173.907 135.068 170.244 145.032 177.57C150.729 181.845 158.866 181.233 163.951 176.148L175.949 164.15C181.034 159.065 181.646 150.928 177.371 145.231L170.045 135.267 173.708 126.519 185.913 124.692C193.032 123.675 198.324 117.572 198.324 110.246L198.324 93.1631C198.324 86.0437 193.032 79.7348 185.913 78.7177ZM190.593 110.246C190.593 113.504 188.154 116.555 184.697 116.96L170.252 118.995C168.83 119.201 167.813 120.012 167.201 121.235L162.116 134.25C161.504 135.474 161.71 136.896 162.521 138.112L171.269 149.705C173.303 152.351 172.898 156.212 170.657 158.651L158.659 170.649C156.22 173.089 152.557 173.295 149.712 171.261L138.12 162.513C137.103 161.702 135.68 161.496 134.258 162.108L121.442 167.4C120.218 168.011 119.201 169.028 119.002 170.451L116.968 184.896C116.563 188.154 113.512 190.792 110.254 190.792L93.1708 190.792C89.913 190.792 86.8619 188.353 86.4567 184.896L84.4226 170.451C84.2161 169.028 83.4055 168.012 81.9833 167.4L69.1589 162.116C68.7537 161.909 68.1418 161.909 67.7366 161.909 66.9262 161.909 66.1077 162.116 65.4958 162.719L53.9031 171.468C51.2571 173.502 47.3956 173.295 44.9563 170.856L32.9584 158.858C30.5191 156.419 30.3124 152.756 32.3465 149.911L41.0948 138.319C41.9054 137.301 42.1118 135.879 41.5002 134.457L36.2082 121.641C35.5964 120.417 34.5793 119.4 33.1571 119.4L18.7116 117.366C15.4538 116.96 12.816 113.909 12.816 110.651L12.816 93.5683C12.816 90.3105 15.2553 87.2593 18.7116 86.8541L33.1571 84.82C34.5793 84.6134 35.5964 83.803 36.2082 82.3807L41.5002 69.5643C42.1118 68.3405 41.9054 66.9183 41.0948 65.7027L32.3465 54.11C30.3124 51.464 30.7178 47.6025 32.9584 45.1632L44.9563 33.1652C47.3956 30.7259 51.0586 30.5193 53.9031 32.5534L65.4958 41.3016C66.5129 42.112 67.9352 42.3187 69.3574 41.7068L82.1739 36.4149C83.3976 35.803 84.4146 34.786 84.6132 33.3638L86.6473 18.9184C87.0525 15.6606 90.1036 13.0227 93.3614 13.0227L110.445 13.0227C113.702 13.0227 116.754 15.462 117.159 18.9184L119.193 33.3638C119.4 34.786 120.21 35.803 121.632 36.4149L134.449 41.7068C135.672 42.3187 137.095 42.112 138.31 41.3016L149.903 32.5534C152.549 30.5193 156.41 30.7257 158.85 33.1652L170.848 45.1632C173.287 47.6025 173.494 51.2655 171.46 54.11L162.711 65.7027C161.901 66.7198 161.694 68.142 162.306 69.5643L167.598 82.3807C168.21 83.6042 169.227 84.6215 170.649 84.82L185.095 86.8541C188.352 87.2593 190.99 90.3105 190.99 93.5683L190.998 110.246Z" fill="#FFFFFF" transform="matrix(1 0 0 1.00446 58.0062 13.6252)"/><path d="M126.322 109.032C123.676 106.386 120.831 104.559 117.574 102.93 121.435 98.8614 123.883 93.5695 123.883 87.4672 123.883 75.2626 113.919 65.2996 101.715 65.2996 89.5111 65.2996 79.5472 75.2634 79.5472 87.4672 79.5472 93.3628 81.9865 98.8614 85.8562 102.93 78.9435 106.593 73.0397 112.29 69.79 119.814 68.9797 121.848 69.79 124.089 71.8242 124.9 72.436 125.106 72.8412 125.305 73.4531 125.305 74.8753 125.305 76.2975 124.494 76.9094 123.064 79.9606 115.945 86.0629 110.653 93.1822 108.213 95.8282 109.23 98.6727 110.041 101.724 110.041 104.775 110.041 107.619 109.429 110.265 108.412 114.334 109.636 117.997 111.868 121.048 114.92 123.487 117.359 125.323 120.212 126.745 123.263 127.555 125.09 129.796 126.107 131.83 125.297 133.658 124.486 134.675 122.246 133.864 120.212 132.013 115.738 129.375 112.083 126.324 109.032ZM101.705 72.8229C109.635 72.8229 116.15 79.3304 116.15 87.2683 116.15 95.198 109.643 101.714 101.705 101.714 93.7754 101.714 87.0612 95.2062 87.0612 87.2683 87.0612 79.3304 93.7754 72.8229 101.705 72.8229Z" fill="#FFFFFF" transform="matrix(1 0 0 1.00446 58.0062 13.6252)"/><path d="M101.705 47.1891C71.5984 47.1891 47.1891 71.5984 47.1891 101.705 47.1891 131.812 71.5984 156.221 101.705 156.221 131.812 156.221 156.221 131.812 156.221 101.705 156.221 71.5984 131.812 47.1891 101.705 47.1891ZM101.705 148.489C75.874 148.489 54.9208 127.536 54.9208 101.705 54.9208 75.874 75.874 54.9208 101.705 54.9208 127.536 54.9208 148.489 75.874 148.489 101.705 148.489 127.536 127.536 148.489 101.705 148.489Z" fill="#FFFFFF" transform="matrix(1 0 0 1.00446 58.0062 13.6252)"/><text fill="#FFFFFF" font-family="Arial,Arial_MSFontService,sans-serif" font-weight="700" font-size="5" transform="matrix(2.0341 0 0 2.04316 58.0062 254)">Created by Adrien Coquet</text><text fill="#FFFFFF" font-family="Arial,Arial_MSFontService,sans-serif" font-weight="700" font-size="5" transform="matrix(2.0341 0 0 2.04316 58.0062 264)">from Noun Project</text></g></svg>