<svg width="20" height="20" xmlns="http://www.w3.org/2000/svg" xmlns:xlink="http://www.w3.org/1999/xlink" xml:space="preserve" overflow="hidden"><g transform="translate(-630 -350)"><path d="M637.458 359.958C637.458 360.419 637.085 360.792 636.625 360.792 636.165 360.792 635.792 360.419 635.792 359.958 635.792 359.498 636.165 359.125 636.625 359.125 637.085 359.125 637.458 359.498 637.458 359.958Z" fill="#FFFFFF"/><path d="M640.792 359.958C640.792 360.419 640.419 360.792 639.958 360.792 639.498 360.792 639.125 360.419 639.125 359.958 639.125 359.498 639.498 359.125 639.958 359.125 640.419 359.125 640.792 359.498 640.792 359.958Z" fill="#FFFFFF"/><path d="M644.125 359.958C644.125 360.419 643.752 360.792 643.292 360.792 642.831 360.792 642.458 360.419 642.458 359.958 642.458 359.498 642.831 359.125 643.292 359.125 643.752 359.125 644.125 359.498 644.125 359.958Z" fill="#FFFFFF"/><path d="M648.917 359.958C648.917 355.011 644.906 351 639.958 351 635.011 351 631 355.011 631 359.958 631 361.39 631.336 362.745 631.935 363.947 632.024 364.127 632.043 364.31 632.002 364.464L631.506 366.319C631.166 367.589 632.328 368.751 633.598 368.411L635.453 367.914C635.607 367.873 635.79 367.892 635.969 367.982 637.171 368.58 638.526 368.917 639.958 368.917 644.906 368.917 648.917 364.906 648.917 359.958ZM639.958 352.25C644.216 352.25 647.667 355.701 647.667 359.958 647.667 364.216 644.216 367.667 639.958 367.667 638.724 367.667 637.559 367.377 636.527 366.863 636.112 366.656 635.616 366.577 635.13 366.707L633.275 367.203C632.934 367.294 632.622 366.983 632.713 366.642L633.21 364.787C633.34 364.3 633.26 363.805 633.054 363.39 632.54 362.357 632.25 361.193 632.25 359.958 632.25 355.701 635.701 352.25 639.958 352.25Z" fill="#FFFFFF" fill-rule="evenodd"/></g></svg>