<svg width="231" height="232" xmlns="http://www.w3.org/2000/svg" xmlns:xlink="http://www.w3.org/1999/xlink" xml:space="preserve" overflow="hidden"><g transform="translate(-21 -421)"><path d="M182.875 134.75C197.216 120.698 211.75 103.854 211.75 81.8125 211.75 52.5759 188.049 28.875 158.812 28.875 141.872 28.875 129.938 33.6875 115.5 48.125 101.062 33.6875 89.1275 28.875 72.1875 28.875 42.9509 28.875 19.25 52.5759 19.25 81.8125 19.25 103.95 33.6875 120.794 48.125 134.75L115.5 202.125Z" stroke="#FFFFFF" stroke-width="19.25" stroke-linecap="round" stroke-linejoin="round" fill="none" transform="matrix(1 0 0 1.00433 21 421)"/><path d="M115.5 48.125 87.01 76.615C78.8237 84.7419 78.7756 97.9661 86.9024 106.152 86.9381 106.189 86.974 106.224 87.01 106.26 94.9025 114.152 107.511 114.441 115.885 106.934L135.809 88.6462C146.156 79.2573 161.941 79.2573 172.287 88.6462L200.778 114.249" stroke="#FFFFFF" stroke-width="19.25" stroke-linecap="round" stroke-linejoin="round" fill="none" transform="matrix(1 0 0 1.00433 21 421)"/><path d="M173.25 144.375 154 125.125" stroke="#FFFFFF" stroke-width="19.25" stroke-linecap="round" stroke-linejoin="round" fill="none" transform="matrix(1 0 0 1.00433 21 421)"/><path d="M144.375 173.25 125.125 154" stroke="#FFFFFF" stroke-width="19.25" stroke-linecap="round" stroke-linejoin="round" fill="none" transform="matrix(1 0 0 1.00433 21 421)"/></g></svg>