<svg width="165" height="161" xmlns="http://www.w3.org/2000/svg" xmlns:xlink="http://www.w3.org/1999/xlink" xml:space="preserve" overflow="hidden"><defs><clipPath id="clip0"><rect x="335" y="4" width="165" height="161"/></clipPath></defs><g clip-path="url(#clip0)" transform="translate(-335 -4)"><path d="M1347.8 202.042C1346.76 202.479 1345.75 202.973 1344.77 203.528 1344.77 203.523 1333.8 197.193 1333.8 197.193 1330.37 195.213 1328.27 191.567 1328.26 187.612L1328.26 172.324C1328.26 169.197 1327.02 166.199 1324.8 163.988 1322.59 161.777 1319.6 160.537 1316.47 160.537L1316.47 160.537C1309.96 160.537 1304.68 165.813 1304.68 172.324 1304.68 177.152 1304.68 183.01 1304.68 187.622 1304.68 191.562 1302.58 195.208 1299.16 197.177L1288.17 203.528C1287.19 202.973 1286.18 202.479 1285.14 202.042 1292.65 197.995 1297.76 190.055 1297.76 180.937 1297.76 167.706 1287.02 156.968 1273.79 156.968 1260.56 156.968 1249.82 167.706 1249.82 180.937 1249.82 190.055 1254.93 197.995 1262.44 202.042 1258.97 203.502 1255.77 205.631 1253.06 208.341 1247.56 213.839 1244.47 221.295 1244.47 229.066 1244.47 240.759 1244.47 251.857 1244.47 251.857 1244.47 253.276 1245.63 254.428 1247.05 254.428L1300.53 254.428C1301.95 254.428 1303.1 253.276 1303.1 251.857L1303.1 229.066C1303.1 226.854 1302.86 224.669 1302.37 222.545 1302.37 222.55 1311.31 217.387 1311.31 217.387 1313.16 216.317 1314.89 215.088 1316.47 213.72 1318.07 215.099 1319.82 216.338 1321.68 217.418 1321.68 217.418 1330.57 222.55 1330.57 222.55 1330.08 224.669 1329.83 226.854 1329.83 229.066L1329.83 251.857C1329.83 253.276 1330.99 254.428 1332.41 254.428L1385.89 254.428C1387.31 254.428 1388.46 253.276 1388.46 251.857 1388.46 251.857 1388.46 240.759 1388.46 229.066 1388.46 221.295 1385.38 213.839 1379.88 208.341 1377.17 205.631 1373.97 203.502 1370.5 202.042 1378.01 197.995 1383.11 190.055 1383.11 180.937 1383.11 167.706 1372.38 156.968 1359.15 156.968 1345.92 156.968 1335.18 167.706 1335.18 180.937 1335.18 190.055 1340.29 197.995 1347.8 202.042ZM1323.11 172.324 1323.11 188.034C1323.11 198.309 1317.64 207.796 1308.74 212.934 1303.1 216.189 1298.09 219.079 1298.09 219.079 1297.06 219.675 1296.57 220.91 1296.92 222.051 1297.61 224.304 1297.96 226.669 1297.96 229.066L1297.96 249.286C1297.96 249.286 1249.62 249.286 1249.62 249.286 1249.62 249.286 1249.62 229.066 1249.62 229.066 1249.62 222.658 1252.16 216.513 1256.69 211.982 1261.19 207.488 1267.27 204.942 1273.62 204.901 1273.68 204.901 1273.86 204.901 1273.89 204.901 1278.49 204.922 1282.94 206.248 1286.77 208.676 1287.57 209.19 1288.6 209.211 1289.43 208.732L1301.74 201.631C1306.74 198.74 1309.82 193.403 1309.82 187.622 1309.82 187.622 1309.82 172.324 1309.82 172.324 1309.82 168.652 1312.8 165.68 1316.47 165.68 1316.47 165.68 1316.47 165.68 1316.47 165.68 1318.23 165.68 1319.92 166.379 1321.17 167.623 1322.41 168.873 1323.11 170.56 1323.11 172.324ZM1326.79 197.882C1325.43 202.366 1323.16 206.516 1320.12 210.069 1321.4 211.144 1322.78 212.111 1324.25 212.965 1329.87 216.209 1334.84 219.079 1334.84 219.079 1335.88 219.675 1336.36 220.91 1336.02 222.051 1335.33 224.304 1334.98 226.669 1334.98 229.066 1334.98 229.066 1334.98 249.286 1334.98 249.286 1334.98 249.286 1383.32 249.286 1383.32 249.286 1383.32 249.286 1383.32 229.066 1383.32 229.066 1383.32 222.658 1380.78 216.513 1376.24 211.982 1371.75 207.488 1365.67 204.942 1359.32 204.901 1359.26 204.901 1359.02 204.901 1358.96 204.901 1354.39 204.937 1349.97 206.264 1346.17 208.676 1345.36 209.19 1344.34 209.211 1343.51 208.732 1343.51 208.732 1336.71 204.809 1331.23 201.646 1329.5 200.653 1328.01 199.373 1326.79 197.882ZM1273.79 162.111C1284.18 162.111 1292.61 170.544 1292.61 180.937 1292.61 191.294 1284.23 199.707 1273.88 199.759 1273.85 199.759 1273.71 199.759 1273.67 199.759 1263.33 199.692 1254.96 191.284 1254.96 180.937 1254.96 170.544 1263.4 162.111 1273.79 162.111ZM1359.15 162.111C1369.54 162.111 1377.97 170.544 1377.97 180.937 1377.97 191.268 1369.63 199.671 1359.31 199.759 1359.26 199.759 1359.03 199.759 1358.98 199.759 1348.67 199.666 1340.32 191.268 1340.32 180.937 1340.32 170.544 1348.76 162.111 1359.15 162.111Z" fill-rule="evenodd" transform="matrix(1.00268 0 0 1 -902.5 -119.419)"/><text font-family="Arial,Arial_MSFontService,sans-serif" font-weight="700" font-size="5" transform="matrix(5.15625 0 0 5.14246 335 246)">Created by Arif Subekti</text><text font-family="Arial,Arial_MSFontService,sans-serif" font-weight="700" font-size="5" transform="matrix(5.15625 0 0 5.14246 335 271)">from the Noun Project</text></g></svg>