<svg width="189" height="139" xmlns="http://www.w3.org/2000/svg" xmlns:xlink="http://www.w3.org/1999/xlink" xml:space="preserve" overflow="hidden"><defs><clipPath id="clip0"><rect x="472" y="-6" width="189" height="139"/></clipPath></defs><g clip-path="url(#clip0)" transform="translate(-472 6)"><path d="M179.508 113.997C176.22 113.997 173.031 113.997 169.701 113.997 169.701 113.3 169.684 112.621 169.703 111.945 169.803 108.433 169.576 104.982 168.322 101.637 164.937 92.6176 155.681 86.7189 146.144 87.5675 136.286 88.4444 128.185 95.7455 126.505 105.318 126.267 106.673 126.161 108.065 126.131 109.442 126.04 113.494 126.28 117.571 125.916 121.597 124.929 132.502 119.567 140.83 110.113 146.278 91.5176 156.997 67.7886 146.193 63.5191 125.154 63.1033 123.101 62.9597 120.975 62.8916 118.875 62.7896 115.679 62.8652 112.48 62.8652 109.282 62.8614 96.6414 52.0279 86.6074 39.4141 87.558 28.1383 88.4085 19.2893 97.9379 19.2818 109.24 19.2799 110.788 19.2818 112.336 19.2818 113.961 16.0253 113.961 12.8142 113.961 9.4878 113.961 9.4878 111.899 9.38952 109.8 9.50481 107.713 9.92439 100.096 12.6838 93.4246 17.8888 87.8377 23.3906 81.9315 30.1871 78.5408 38.2479 77.8604 48.091 77.0288 56.5885 80.1379 63.5494 87.1044 69.6238 93.1846 72.593 100.665 72.6932 109.263 72.7291 112.395 72.6989 115.528 72.6989 118.66 72.6989 129.514 80.3137 138.528 91.0262 140.355 103.028 142.402 114.768 133.685 116.048 121.548 116.471 117.533 116.243 113.451 116.278 109.399 116.314 105.235 116.966 101.179 118.65 97.369 123.738 85.8532 132.521 79.1249 145.084 77.8945 161.194 76.3163 175.666 87.1933 178.909 102.977 179.65 106.579 179.578 110.234 179.508 113.997Z" fill="#FFFFFF" transform="matrix(1 0 0 1.00358 472 -30.3877)"/><path d="M147.919 38.1572C157.77 38.1591 165.717 46.15 165.71 56.0404 165.7 65.8249 157.694 73.7724 147.849 73.7667 138.055 73.761 130.098 65.7625 130.102 55.927 130.104 46.1217 138.093 38.1553 147.919 38.1572ZM138.664 55.9383C138.658 61.0508 142.784 65.1974 147.883 65.2031 152.995 65.2088 157.142 61.0829 157.148 55.9856 157.154 50.8731 153.028 46.7265 147.93 46.7208 142.816 46.7132 138.669 50.8391 138.664 55.9383Z" fill="#FFFFFF" transform="matrix(1 0 0 1.00358 472 -30.3877)"/><path d="M41.1094 38.1572C50.9601 38.1591 58.9075 46.15 58.9 56.0404 58.8905 65.8249 50.8845 73.7724 41.0395 73.7667 31.2455 73.761 23.2886 65.7625 23.2924 55.927 23.2961 46.1217 31.2833 38.1553 41.1094 38.1572ZM31.8541 55.9383C31.8484 61.0508 35.9743 65.1974 41.0735 65.2031 46.1859 65.2088 50.3326 61.0829 50.3383 55.9856 50.3439 50.8731 46.2181 46.7265 41.1207 46.7208 36.0083 46.7132 31.8597 50.8391 31.8541 55.9383Z" fill="#FFFFFF" transform="matrix(1 0 0 1.00358 472 -30.3877)"/><text fill="#FFFFFF" font-family="Arial,Arial_MSFontService,sans-serif" font-weight="700" font-size="5" transform="matrix(1.89 0 0 1.89677 472 188)">Created by Thibaud Marque</text><text fill="#FFFFFF" font-family="Arial,Arial_MSFontService,sans-serif" font-weight="700" font-size="5" transform="matrix(1.89 0 0 1.89677 472 197)">from the Noun Project</text></g></svg>