<svg width="210" height="183" xmlns="http://www.w3.org/2000/svg" xmlns:xlink="http://www.w3.org/1999/xlink" xml:space="preserve" overflow="hidden"><defs><clipPath id="clip0"><rect x="746" y="196" width="210" height="183"/></clipPath></defs><g clip-path="url(#clip0)" transform="translate(-746 -196)"><path d="M246.972 115.358 127.228 115.358C116.411 115.358 107.582 124.187 107.582 135.004L107.582 205.619C107.582 210.852 109.643 215.793 113.342 219.535 117.04 223.233 121.98 225.264 127.228 225.264L127.272 225.264 154.62 225.191 154.664 225.191C157.924 225.191 160.993 226.77 162.937 229.343L183.357 256.969C184.249 258.168 185.638 258.884 187.099 258.884 188.591 258.884 189.979 258.168 190.841 256.969L211.306 229.284C213.25 226.668 216.319 225.089 219.579 225.089L247 225.016C257.817 224.972 266.602 216.187 266.602 205.37L266.602 135.017C266.617 124.157 257.788 115.357 246.971 115.357ZM257.262 205.357C257.262 211.014 252.658 215.647 247.015 215.647L219.594 215.72C213.425 215.72 207.505 218.717 203.837 223.687L187.1 246.3 170.407 223.804C166.709 218.834 160.833 215.867 154.62 215.867L154.577 215.867 127.228 215.94 127.184 215.94C124.451 215.94 121.863 214.858 119.919 212.943 117.975 210.999 116.894 208.412 116.894 205.65L116.894 135.004C116.894 129.318 121.498 124.714 127.184 124.714L246.928 124.714C252.614 124.714 257.218 129.318 257.218 135.004L257.218 205.358Z" fill="#9272F0" transform="matrix(1 0 0 1.00001 662.089 98.245)"/><path d="M224.329 154.241 156.269 154.241C153.682 154.241 151.592 156.332 151.592 158.919 151.592 161.506 153.682 163.596 156.269 163.596L224.299 163.596C226.886 163.596 228.976 161.506 228.976 158.919 228.976 156.346 226.915 154.241 224.328 154.241Z" fill="#9272F0" transform="matrix(1 0 0 1.00001 662.089 98.245)"/><path d="M187.1 176.588 156.272 176.588C153.685 176.588 151.595 178.679 151.595 181.266 151.595 183.853 153.685 185.943 156.272 185.943L187.1 185.943C189.687 185.943 191.777 183.853 191.777 181.266 191.777 178.679 189.687 176.588 187.1 176.588Z" fill="#9272F0" transform="matrix(1 0 0 1.00001 662.089 98.245)"/><text fill="#9272F0" font-family="Arial,Arial_MSFontService,sans-serif" font-weight="700" font-size="5" transform="matrix(3.74199 0 0 3.74204 662.089 538)">Created by creative</text><text fill="#9272F0" font-family="Arial,Arial_MSFontService,sans-serif" font-weight="700" font-size="5" transform="matrix(3.74199 0 0 3.74204 841.705 538)">_</text><text fill="#9272F0" font-family="Arial,Arial_MSFontService,sans-serif" font-weight="700" font-size="5" transform="matrix(3.74199 0 0 3.74204 852.931 538)">visionary</text><text fill="#9272F0" font-family="Arial,Arial_MSFontService,sans-serif" font-weight="700" font-size="5" transform="matrix(3.74199 0 0 3.74204 662.089 557)">from Noun Project</text></g></svg>