<svg width="258" height="263" xmlns="http://www.w3.org/2000/svg" xmlns:xlink="http://www.w3.org/1999/xlink" xml:space="preserve" overflow="hidden"><defs><clipPath id="clip0"><rect x="24" y="-45" width="258" height="263"/></clipPath></defs><g clip-path="url(#clip0)" transform="translate(-24 45)"><path d="M198.299 71.9775C204.721 71.9775 209.921 77.183 209.921 83.599L209.921 173.975C209.921 180.388 204.721 185.591 198.299 185.591L59.2665 185.591C52.8505 185.591 47.6476 180.388 47.6476 173.975L47.6476 83.599C47.6476 77.183 52.8505 71.9775 59.2665 71.9775L198.299 71.9775M198.299 64.2505 59.2665 64.2505C48.598 64.2505 39.9205 72.9305 39.9205 83.599L39.9205 173.975C39.9205 184.641 48.598 193.318 59.2665 193.318L198.299 193.318C208.968 193.318 217.648 184.641 217.648 173.975L217.648 83.599C217.648 72.9305 208.968 64.2505 198.299 64.2505L198.299 64.2505Z" transform="matrix(1.00168 0 0 1 24 -45)"/><path d="M128.782 148.862C127.867 148.862 126.95 148.537 126.219 147.888L57.9632 87.3595C56.3663 85.9455 56.2195 83.5011 57.6361 81.9068 59.0527 80.3124 61.4945 80.1656 63.0888 81.5797L128.782 139.834 194.48 81.5771C196.077 80.1579 198.524 80.3073 199.932 81.9042 201.349 83.5011 201.202 85.9429 199.605 87.3569L131.344 147.886C130.613 148.537 129.696 148.862 128.782 148.862Z" transform="matrix(1.00168 0 0 1 24 -45)"/><text font-family="Arial,Arial_MSFontService,sans-serif" font-weight="700" font-size="5" transform="matrix(2.58 0 0 2.57569 24 251)">Created by lipi</text><text font-family="Arial,Arial_MSFontService,sans-serif" font-weight="700" font-size="5" transform="matrix(2.58 0 0 2.57569 24 264)">from the Noun Project</text></g></svg>