<svg width="233" height="239" xmlns="http://www.w3.org/2000/svg" xmlns:xlink="http://www.w3.org/1999/xlink" xml:space="preserve" overflow="hidden"><defs><clipPath id="clip0"><rect x="896" y="307" width="233" height="239"/></clipPath></defs><g clip-path="url(#clip0)" transform="translate(-896 -307)"><path d="M221.35 106.136C216.203 106.136 212.03 110.309 212.03 115.456L212.03 137.47 170.09 137.47C152.102 137.47 137.47 152.102 137.47 170.09L137.47 212.03 34.95 212.03C27.24 212.03 20.97 205.76 20.97 198.05L20.97 34.95C20.97 27.24 27.24 20.97 34.95 20.97L117.765 20.97C122.912 20.97 127.085 16.797 127.085 11.65 127.085 6.50303 122.912 2.33 117.765 2.33L34.95 2.33C16.9624 2.33 2.33 16.9624 2.33 34.95L2.33 198.05C2.33 216.038 16.9624 230.67 34.95 230.67L146.79 230.67C146.813 230.67 146.834 230.663 146.855 230.663 147.449 230.658 148.039 230.602 148.619 230.486 148.959 230.418 149.278 230.293 149.607 230.19 149.856 230.111 150.115 230.055 150.36 229.955 150.725 229.803 151.061 229.598 151.403 229.402 151.59 229.295 151.786 229.218 151.965 229.097 152.475 228.757 152.951 228.37 153.382 227.939L153.382 227.939 227.942 153.379C228.331 152.99 228.666 152.566 228.974 152.128 229.067 151.993 229.146 151.853 229.235 151.713 229.442 151.38 229.626 151.042 229.789 150.69 229.864 150.53 229.938 150.369 230.004 150.201 230.178 149.761 230.32 149.306 230.425 148.843 230.442 148.773 230.47 148.705 230.484 148.633 230.593 148.088 230.64 147.531 230.651 146.974 230.654 146.911 230.67 146.853 230.67 146.79L230.67 115.456C230.67 110.309 226.497 106.136 221.35 106.136ZM156.11 198.849 156.11 170.09C156.11 162.38 162.38 156.11 170.09 156.11L198.849 156.11 156.11 198.849Z" transform="matrix(1 0 0 1.00177 896 307)"/><path d="M194.257 5.09338C190.615 1.45392 184.715 1.45625 181.076 5.09571L41.3785 144.796C39.6263 146.548 38.6454 148.924 38.65 151.403L38.7176 184.75C38.7269 189.881 42.8837 194.04 48.0143 194.052L82.27 194.133C82.277 194.133 82.2863 194.133 82.2933 194.133 84.7654 194.133 87.135 193.152 88.8848 191.403L228.142 52.1454C229.889 50.3979 230.87 48.026 230.87 45.5562 230.87 43.0817 229.887 40.7121 228.14 38.9646L194.257 5.09338ZM78.4418 175.482 57.339 175.433 57.297 155.236 187.668 24.8634 208.37 45.5585 78.4418 175.482Z" transform="matrix(1 0 0 1.00177 896 307)"/><text font-family="Arial,Arial_MSFontService,sans-serif" font-weight="700" font-size="5" transform="matrix(2.33 0 0 2.33413 896 575)">Created by lembayin</text><text font-family="Arial,Arial_MSFontService,sans-serif" font-weight="700" font-size="5" transform="matrix(2.33 0 0 2.33413 896 587)">from the Noun Project</text></g></svg>