<svg width="252" height="213" xmlns="http://www.w3.org/2000/svg" xmlns:xlink="http://www.w3.org/1999/xlink" xml:space="preserve" overflow="hidden"><g transform="translate(-174 -382)"><g><path d="M152.745 203.991C160.536 211.906 168.124 219.994 176.149 227.623 180.483 231.745 187.744 231.256 192.021 227.036 193.586 225.487 194.901 223.346 195.504 221.236 197.598 213.928 199.329 206.517 201.184 199.199 196.824 195.945 195.914 192.676 198.466 189.766 200.607 187.333 204.147 187.183 206.475 189.433 209.167 192.032 208.7 195.343 205.119 198.487 208.632 206.283 212.016 214.178 215.727 221.917 220.051 230.939 231.537 231.677 237.233 223.445 237.685 222.79 238.112 222.109 238.527 221.428 242.924 214.193 247.316 206.959 251.167 200.618 250.481 197.816 249.53 195.774 249.603 193.773 249.691 191.247 251.516 189.636 254.135 189.397 256.931 189.137 259.083 190.234 260.018 192.983 260.876 195.514 260.335 198.035 257.939 199.23 255.689 200.358 255.814 201.766 256.1 203.715 257.233 211.309 258.319 218.913 259.317 226.532 259.987 231.682 262.227 235.638 267.263 237.561 272.528 239.572 277.003 238.122 281.021 234.401 286.884 228.959 292.834 223.616 298.235 218.699 298.338 216.044 298.047 213.793 298.645 211.803 298.988 210.659 300.625 209.562 301.909 209.11 305.048 208.014 308.234 210.217 308.749 213.528 309.305 217.125 307.106 219.432 302.309 219.978 301.072 227.883 299.42 235.845 298.676 243.886 297.855 252.815 306.597 259.192 315.001 255.99 324.991 252.191 334.834 248.002 344.688 244.005 344.751 238.408 346.892 235.554 350.665 235.903 353.68 236.178 355.993 238.979 355.629 241.906 355.104 246.079 352.386 247.482 346.897 246.313 331.705 267.866 316.472 289.467 301.228 311.093 292.398 303.026 281.878 298.505 271.073 295.033 257.955 290.818 244.619 287.065 231.142 284.212 213.611 280.506 195.795 278.677 177.807 280.324 175.826 280.506 173.846 280.829 171.897 281.244 169.964 281.655 168.067 282.268 165.884 282.866 164.512 276.229 163.145 269.602 161.778 262.976 157.979 244.593 154.174 226.21 150.396 207.821 150.131 206.517 150.037 205.503 148.234 205.228 144.268 204.63 142.511 201.709 143.592 198.133 144.533 195.041 147.626 193.601 150.801 194.786 153.972 195.971 155.053 199.272 153.405 202.738 153.239 203.087 153.046 203.419 152.745 203.991" fill="#DE5726" transform="matrix(1.0042 0 0 1 58.6347 235.495)"/></g></g></svg>