<svg width="222" height="171" xmlns="http://www.w3.org/2000/svg" xmlns:xlink="http://www.w3.org/1999/xlink" xml:space="preserve" overflow="hidden"><defs><clipPath id="clip0"><rect x="885" y="25" width="222" height="171"/></clipPath></defs><g clip-path="url(#clip0)" transform="translate(-885 -25)"><path d="M206.772 108.052 194.736 82.3481 194.736 82.3481C193.111 78.5323 190.86 75.015 188.076 71.9419 183.545 66.8693 177.735 63.1074 171.252 61.05L169.379 57.0609 169.067 56.5406C168.053 54.2264 166.683 52.0847 165.008 50.1928 155.871 39.8858 140.108 38.9377 129.801 48.0752 124.507 52.7688 121.455 59.4902 121.406 66.5653L121.406 99.5184C114.835 96.3289 107.165 96.3289 100.594 99.5184L100.594 66.5653C100.589 52.7912 89.4195 41.6286 75.6453 41.6331 68.5495 41.6354 61.7905 44.6602 57.0609 49.95 55.3861 51.8419 54.0168 53.9836 53.0025 56.2978L52.6903 56.8181 50.8172 60.8072C44.3347 62.8646 38.5242 66.6265 33.9937 71.6991 31.209 74.7722 28.9579 78.2895 27.3337 82.1053L27.3337 82.1053 15.2278 108.052C15.2278 108.052 15.2278 108.329 15.2278 108.468 12.0982 114.629 10.4474 121.434 10.4062 128.344 10.4062 153.248 30.5954 173.438 55.5 173.438 80.4046 173.438 100.594 153.248 100.594 128.344L100.594 121.406C100.594 115.659 105.253 111 111 111 116.747 111 121.406 115.659 121.406 121.406L121.406 128.344C121.406 153.248 141.595 173.438 166.5 173.438 191.405 173.438 211.594 153.248 211.594 128.344 211.596 121.445 209.992 114.64 206.911 108.468 206.911 108.468 206.842 108.19 206.772 108.052ZM75.6534 55.5C81.7646 55.5 86.7188 60.4541 86.7188 66.5653L86.7188 67.71C81.1647 63.1364 74.4307 60.2264 67.2937 59.3156L67.2937 59.3156C69.3927 56.8883 72.4445 55.4954 75.6534 55.5ZM62.4375 72.8438C75.3493 72.8247 86.0178 82.9141 86.7188 95.8069 74.6562 84.1505 57.0842 80.2262 41.2088 85.6434 42.0899 83.9549 43.1606 82.3722 44.4 80.9259 48.9943 75.7959 55.5509 72.858 62.4375 72.8438ZM55.5 159.562C38.2584 159.562 24.2812 145.585 24.2812 128.344 24.2812 111.102 38.2584 97.125 55.5 97.125 72.7416 97.125 86.7188 111.102 86.7188 128.344 86.7188 145.585 72.7416 159.562 55.5 159.562ZM177.669 80.9259C178.909 82.3722 179.979 83.9549 180.861 85.6434 164.965 80.1978 147.358 84.1238 135.281 95.8069 136.018 82.417 147.469 72.1592 160.859 72.8957 167.283 73.2489 173.304 76.1371 177.6 80.9259ZM146.451 55.5C149.599 55.4992 152.6 56.8358 154.706 59.1769L154.706 59.1769C147.555 60.1276 140.819 63.0864 135.281 67.71L135.281 66.5653C135.281 60.4541 140.235 55.5 146.347 55.5ZM166.5 159.562C149.258 159.562 135.281 145.585 135.281 128.344 135.281 111.102 149.258 97.125 166.5 97.125 183.742 97.125 197.719 111.102 197.719 128.344 197.719 145.585 183.742 159.562 166.5 159.562Z" transform="matrix(1 0 0 1.00278 885 4.67234)"/><text font-family="Arial,Arial_MSFontService,sans-serif" font-weight="700" font-size="5" transform="matrix(3.46875 0 0 3.47838 885 279)">Created by Irvan Rhomadhani</text><text font-family="Arial,Arial_MSFontService,sans-serif" font-weight="700" font-size="5" transform="matrix(3.46875 0 0 3.47838 885 297)">from the Noun Project</text></g></svg>