<svg width="110" height="101" xmlns="http://www.w3.org/2000/svg" xmlns:xlink="http://www.w3.org/1999/xlink" xml:space="preserve" overflow="hidden"><defs><clipPath id="clip0"><rect x="530" y="501" width="110" height="101"/></clipPath></defs><g clip-path="url(#clip0)" transform="translate(-530 -501)"><path d="M49.875 67.5C51.2812 68.9062 51.2812 71.1875 49.875 72.5938L37.25 85.2188C30.8125 91.6563 20.312 91.6563 13.875 85.2188 7.438 78.7813 7.4375 68.2808 13.875 61.8438L34.906 40.8128C41.3435 34.3753 51.844 34.3753 58.281 40.8128 59.4685 42.0003 60.4998 43.3753 61.281 44.8753 62.1872 46.6253 61.531 48.8128 59.7498 49.7191 57.9998 50.6254 55.8123 49.9379 54.906 48.1879 54.4685 47.3442 53.906 46.5629 53.2185 45.8754 49.5935 42.2504 43.656 42.2504 40.0305 45.8754L18.9995 66.9064C15.3745 70.5314 15.3745 76.4689 18.9995 80.0944 22.6245 83.7199 28.562 83.7194 32.1875 80.0944L44.8125 67.4694C46.2187 66.0632 48.5 66.0632 49.9063 67.4694ZM62.75 14.75 50 27.5C48.5938 28.9062 48.5938 31.1875 50 32.5938 51.4062 34.0001 53.6875 34 55.0938 32.5938L67.8438 19.8438C71.4688 16.2188 77.4063 16.2188 81.0318 19.8438 84.6573 23.4688 84.6568 29.4063 81.0318 33.0318L60.0008 54.0628C56.3758 57.6878 50.4383 57.6878 46.8128 54.0628 46.2191 53.4691 45.6878 52.7816 45.2816 52.0316 44.3129 50.2816 42.0941 49.6878 40.3754 50.6566 38.6567 51.6254 38.0316 53.8441 39.0004 55.5628 39.7504 56.8753 40.6566 58.094 41.7192 59.1566 48.1567 65.5941 58.6572 65.5941 65.0942 59.1566L86.1252 38.1256C92.5627 31.6881 92.5627 21.1876 86.1252 14.7506 79.6877 8.3136 69.1872 8.3131 62.7502 14.7506Z" fill="#FFFFFF" transform="matrix(1 0 0 1.00432 535 501.001)"/><text fill="#FFFFFF" font-family="Arial,Arial_MSFontService,sans-serif" font-weight="700" font-size="5" transform="matrix(1 0 0 1.00432 535 619)">Created by SEFEICN</text><text fill="#FFFFFF" font-family="Arial,Arial_MSFontService,sans-serif" font-weight="700" font-size="5" transform="matrix(1 0 0 1.00432 535 624)">from Noun Project</text></g></svg>