<svg width="169" height="147" xmlns="http://www.w3.org/2000/svg" xmlns:xlink="http://www.w3.org/1999/xlink" xml:space="preserve" overflow="hidden"><defs><clipPath id="clip0"><rect x="132" y="413" width="169" height="147"/></clipPath></defs><g clip-path="url(#clip0)" transform="translate(-132 -413)"><path d="M128.315 58.5433 128.315 70.9104 157.292 99.8879 128.315 128.865 128.315 141.232 169.66 99.8879 128.315 58.5433Z" fill="#FFFFFF" transform="matrix(1.00111 0 0 1 115.276 385.701)"/><path d="M71.4598 141.232 71.4598 128.865 42.4833 99.8879 71.4598 70.9114 71.4598 58.5433 30.1162 99.8879 71.4598 141.232Z" fill="#FFFFFF" transform="matrix(1.00111 0 0 1 115.276 385.701)"/><path d="M36.8687 95.5251 162.927 95.5251 162.927 104.27 36.8688 104.27Z" fill="#FFFFFF" transform="matrix(0.29805 -0.95455 0.95561 0.29772 90.0371 551.204)"/><text fill="#FFFFFF" font-family="Arial,Arial_MSFontService,sans-serif" font-weight="700" font-size="5" transform="matrix(0.999988 0 0 0.998879 115.276 600)">Created by Wan HD</text><text fill="#FFFFFF" font-family="Arial,Arial_MSFontService,sans-serif" font-weight="700" font-size="5" transform="matrix(0.999988 0 0 0.998879 115.276 605)">from the Noun Project</text></g></svg>