<svg width="209" height="200" xmlns="http://www.w3.org/2000/svg" xmlns:xlink="http://www.w3.org/1999/xlink" xml:space="preserve" overflow="hidden"><defs><clipPath id="clip0"><rect x="541" y="147" width="209" height="200"/></clipPath></defs><g clip-path="url(#clip0)" transform="translate(-541 -147)"><path d="M164.855 162.694 164.646 162.692C150.265 162.569 136.268 162.587 122.167 162.61 116.844 162.617 111.52 162.625 106.197 162.625L105.096 162.625C98.9364 162.625 92.7751 162.635 86.6159 162.648 72.4394 162.671 58.2671 162.696 44.0885 162.594 33.4254 162.516 23.6442 158.418 16.5465 151.057 9.6349 143.888 5.98994 134.341 6.28672 124.173 6.73607 108.739 17.0795 95.281 32.0209 90.6872 33.0575 90.3695 33.185 90.2943 33.5591 89.1197 40.0131 68.924 54.0265 56.0183 74.0842 51.7923 94.0793 47.5768 111.763 53.598 125.908 69.3734 125.941 69.411 125.973 69.4465 126.002 69.4779 126.027 69.4653 126.05 69.4528 126.075 69.4402 131.407 66.6355 137.34 65.1537 143.242 65.1537 158.531 65.1537 171.909 74.5189 177.324 89.0131 177.886 90.5179 178.371 91.032 179.801 91.636 193.687 97.5027 201.578 108.337 202.623 122.965 203.648 137.359 197.39 149.205 184.528 157.227 178.616 160.905 172.18 162.694 164.855 162.694ZM138.124 154.234C146.931 154.234 155.741 154.257 164.546 154.332L164.855 158.514 164.855 154.334C170.571 154.334 175.562 152.959 180.108 150.127 190.46 143.673 195.099 134.981 194.284 123.557 193.467 112.112 187.5 103.963 176.549 99.3335 172.975 97.8224 170.864 95.6091 169.493 91.9328 165.313 80.743 155.009 73.5116 143.244 73.5116 138.628 73.5116 134.163 74.6297 129.975 76.8326 128.414 77.6581 127.051 78.0427 125.688 78.0427 122.783 78.0427 120.867 76.2766 119.68 74.9474 107.574 61.4481 92.8002 56.3882 75.8085 59.9705 58.6224 63.5903 47.0877 74.2514 41.5262 91.659 40.3391 95.3813 38.1655 97.5466 34.4766 98.6773 22.9607 102.218 14.9895 112.563 14.6446 124.416 14.4147 132.316 17.2279 139.714 22.5678 145.253 28.0896 150.982 35.7557 154.171 44.1512 154.232 58.3026 154.338 72.454 154.311 86.6012 154.286 92.7667 154.273 98.9322 154.263 105.098 154.263L106.199 154.263C111.518 154.263 116.837 154.255 122.156 154.248 127.477 154.242 132.801 154.234 138.124 154.234Z" transform="matrix(1 0 0 1.00263 541 133.804)"/><path d="M85.1675 135.139C84.831 135.139 84.4924 135.073 84.1706 134.922L52.7182 120.309C51.8863 119.922 51.3429 119.08 51.3429 118.156L51.3429 112.526C51.3429 111.6 51.8863 110.755 52.7182 110.371L84.1706 95.7596C84.9021 95.421 85.7673 95.4775 86.4445 95.9122 87.1321 96.3469 87.5459 97.1035 87.5459 97.9144L87.5459 104.857C87.5459 105.8 86.9879 106.651 86.1247 107.035L67.1517 115.343 86.1247 123.653C86.9879 124.027 87.5459 124.884 87.5459 125.824L87.5459 132.774C87.5459 133.582 87.1321 134.337 86.4445 134.778 86.062 135.022 85.6168 135.139 85.1675 135.139Z" transform="matrix(1 0 0 1.00263 541 133.804)"/><path d="M101.334 137.764 94.7146 137.764C93.9643 137.764 93.2579 137.413 92.8106 136.816 92.3655 136.207 92.2296 135.442 92.4323 134.719L106.463 87.2157C106.761 86.2083 107.687 85.5144 108.736 85.5144L115.349 85.5144C116.104 85.5144 116.806 85.8656 117.255 86.4696 117.7 87.0673 117.84 87.8448 117.636 88.5637L103.61 136.059C103.313 137.077 102.385 137.764 101.334 137.764Z" transform="matrix(1 0 0 1.00263 541 133.804)"/><path d="M119.168 135.139C118.714 135.139 118.269 135.016 117.886 134.767 117.201 134.326 116.791 133.576 116.791 132.767L116.791 125.82C116.791 124.873 117.358 124.014 118.229 123.64L137.597 115.337 118.229 107.035C117.356 106.661 116.791 105.804 116.791 104.853L116.791 97.9102C116.791 97.1035 117.201 96.3469 117.882 95.9101 118.559 95.4733 119.421 95.4148 120.154 95.7533L151.604 110.166C152.44 110.553 152.99 111.397 152.99 112.323L152.99 118.344C152.99 119.274 152.44 120.125 151.604 120.505L120.152 134.924C119.836 135.075 119.5 135.139 119.168 135.139Z" transform="matrix(1 0 0 1.00263 541 133.804)"/><text font-family="Arial,Arial_MSFontService,sans-serif" font-weight="700" font-size="5" transform="matrix(2.09 0 0 2.0955 541 375)">Created by Santiago Arias</text><text font-family="Arial,Arial_MSFontService,sans-serif" font-weight="700" font-size="5" transform="matrix(2.09 0 0 2.0955 541 385)">from the Noun Project</text></g></svg>