<svg width="188" height="186" xmlns="http://www.w3.org/2000/svg" xmlns:xlink="http://www.w3.org/1999/xlink" xml:space="preserve" overflow="hidden"><defs><clipPath id="clip0"><rect x="329" y="360" width="188" height="186"/></clipPath></defs><g clip-path="url(#clip0)" transform="translate(-329 -360)"><path d="M94.4399 178.6C47.8065 178.6 9.86812 140.662 9.86812 94.0282 9.86812 47.3948 47.8065 9.4564 94.4399 9.4564 141.073 9.4564 179.012 47.3948 179.012 94.0282 179.012 140.662 141.073 178.6 94.4399 178.6ZM94.4399 17.6682C52.3354 17.6682 18.08 51.9237 18.08 94.0282 18.08 136.133 52.3354 170.388 94.4399 170.388 136.544 170.388 170.8 136.133 170.8 94.0282 170.8 51.9237 136.544 17.6682 94.4399 17.6682Z" transform="matrix(1 0 0 1.00382 329 360)"/><path d="M56.4771 130.931 77.7643 79.4845C78.1779 78.4862 78.9713 77.6948 79.9714 77.2868L131.515 56.2383C132.076 56.009 132.632 56.5692 132.401 57.1276L111.116 108.574C110.702 109.572 109.909 110.364 108.908 110.771L57.3626 131.82C56.8042 132.047 56.2458 131.489 56.4771 130.931ZM84.0416 85.79 71.1072 117.049C71.0546 117.177 71.1824 117.306 71.3103 117.254L102.631 104.464C103.631 104.056 104.426 103.265 104.838 102.266L117.773 71.0076C117.825 70.8798 117.697 70.75 117.57 70.8027L86.2488 83.5923C85.2486 84.0022 84.4552 84.7936 84.0416 85.79Z" transform="matrix(1 0 0 1.00382 329 360)"/><text font-family="Arial,Arial_MSFontService,sans-serif" font-weight="700" font-size="5" transform="matrix(1.88 0 0 1.88718 329 577)">Created by AB</text><text font-family="Arial,Arial_MSFontService,sans-serif" font-weight="700" font-size="5" transform="matrix(1.88 0 0 1.88718 329 586)">from the Noun Project</text></g></svg>