<svg width="210" height="207" xmlns="http://www.w3.org/2000/svg" xmlns:xlink="http://www.w3.org/1999/xlink" xml:space="preserve" overflow="hidden"><defs><clipPath id="clip0"><rect x="204" y="157" width="210" height="207"/></clipPath></defs><g clip-path="url(#clip0)" transform="translate(-204 -157)"><path d="M90.8536 186.136C90.7418 186.136 90.6076 186.136 90.4882 186.114 76.8562 184.831 63.9328 179.872 53.1273 171.721 23.3493 149.349 19.3593 112.442 41.2402 62.0229 41.9635 60.345 43.798 59.4054 45.5952 59.7857 47.3924 60.166 48.6677 61.7694 48.6528 63.6038 48.5037 76.1099 51.3225 85.8868 57.266 93.1948 56.4457 48.3311 75.6336 18.681 114.39 4.99663 115.762 4.51935 117.291 4.84749 118.342 5.83932 119.394 6.83115 119.796 8.33755 119.371 9.73214 113.681 28.7484 120.117 40.6423 126.933 53.2384 131.9 62.4036 136.956 71.7551 137.165 83.6713 140.789 76.4898 145.167 68.4358 156.024 59.7103 157.344 58.6438 159.216 58.5843 160.603 59.5163 161.998 60.4708 162.624 62.2308 162.132 63.849 157.247 79.8078 159.38 94.9691 161.446 109.608 164.757 133.12 167.889 155.321 140.035 173.727 129.938 180.386 118.23 184.629 106.224 185.987 104.277 186.218 102.465 184.92 102.025 182.989 101.585 181.057 102.674 179.133 104.546 178.499 117.492 174.092 125.433 167.94 128.127 160.229 130.491 153.45 129.044 144.881 123.831 134.664 120.684 141.972 115.449 147.133 108.156 150.034 106.664 150.623 104.964 150.243 103.883 149.057 102.794 147.871 102.563 146.156 103.271 144.724 120.185 110.8 111.884 91.3825 98.3865 77.6752 98.7296 95.752 88.498 107.549 79.2956 118.146 70.4214 128.378 62.0392 138.043 62.4941 152.607 62.8746 164.882 72.4796 173.361 91.854 178.552 93.7854 179.066 95.0009 180.997 94.6581 182.959 94.3078 184.816 92.6894 186.136 90.8548 186.136ZM122.636 121.079C123.934 121.079 125.172 121.728 125.88 122.854 136.097 138.813 139.207 151.87 135.388 162.773 134.531 165.256 133.285 167.583 131.704 169.783 133.076 169 134.456 168.179 135.769 167.3 159.558 151.587 157 133.526 153.793 110.676 152.212 99.5047 150.489 87.1922 152.078 74.2543 148.126 79.027 145.836 83.5909 143.465 88.304 140.698 93.8001 137.849 99.4902 132.256 105.255 130.974 106.575 128.938 106.798 127.387 105.807 125.843 104.815 125.209 102.846 125.895 101.146 133.591 81.8238 127.349 70.2946 120.108 56.9312 113.978 45.6107 107.125 32.9702 110.197 14.9082 76.6546 29.4353 61.9699 58.0936 65.3929 102.249 65.5047 103.755 64.7441 105.187 63.4242 105.918 62.1043 106.642 60.4859 106.545 59.263 105.672 50.7093 99.4079 45.0939 90.7274 42.5361 79.7504 28.6728 119.326 33.6991 147.485 57.7342 165.562 57.9281 165.711 58.1144 165.846 58.3233 166.002 56.1084 162.05 54.9077 157.68 54.7512 152.847 54.1993 135.285 63.9685 124.003 73.4244 113.1 84.0735 100.84 94.1189 89.2746 89.5175 68.729 89.1521 67.1257 89.8605 65.4627 91.2551 64.605 92.6495 63.7474 94.4469 63.8593 95.722 64.8885 110.48 76.9173 125.164 94.0403 119.147 123.287 119.661 122.184 120.675 121.378 121.898 121.132 122.144 121.095 122.39 121.08 122.637 121.08Z" fill="#FFFFFF" transform="matrix(1 0 0 1.00001 213.545 166.264)"/><text fill="#FFFFFF" font-family="Arial,Arial_MSFontService,sans-serif" font-weight="700" font-size="5" transform="matrix(1.90909 0 0 1.9091 213.545 391)">Created by karjoyudhi</text><text fill="#FFFFFF" font-family="Arial,Arial_MSFontService,sans-serif" font-weight="700" font-size="5" transform="matrix(1.90909 0 0 1.9091 213.545 400)">from Noun Project</text></g></svg>