<svg width="284" height="306" xmlns="http://www.w3.org/2000/svg" xmlns:xlink="http://www.w3.org/1999/xlink" xml:space="preserve" overflow="hidden"><defs><clipPath id="clip0"><rect x="11" y="406" width="284" height="306"/></clipPath></defs><g clip-path="url(#clip0)" transform="translate(-11 -406)"><path d="M128.716 244.883C98.8813 244.883 69.3768 233.264 46.9042 210.788 23.614 187.498 11.3007 155.266 13.1232 122.349 14.9658 88.9803 30.4826 59.004 56.7923 37.9492 98.3787 4.67083 158.834 4.51874 200.552 37.5766 246.791 74.2189 258.398 139.126 227.86 189.108L237.335 222.448C238.544 226.677 237.406 231.057 234.294 234.169 231.183 237.28 226.823 238.428 222.554 237.23L189.224 227.755C170.404 239.254 149.47 244.872 128.717 244.882ZM128.917 19.3123C104.721 19.3123 80.5257 27.1965 60.8191 42.9649 35.9482 62.8819 21.2974 91.1966 19.5549 122.704 17.8331 153.789 29.4631 184.237 51.4645 206.238 87.7743 242.558 143.528 248.86 187.037 221.533 187.802 221.05 188.749 220.899 189.625 221.17L224.324 231.028C226.267 231.582 228.301 231.048 229.741 229.608 231.171 228.179 231.694 226.144 231.141 224.201L221.283 189.502C221.031 188.626 221.162 187.68 221.645 186.915 251.379 139.549 240.596 77.5213 196.553 42.6216 176.938 27.0849 152.922 19.3112 128.919 19.3112ZM128.877 171.055C120.721 171.055 114.095 164.419 114.095 156.263L114.095 155.488C114.095 136.991 123.117 119.431 138.846 107.326 142.974 104.144 145.31 99.3307 145.24 94.1149 145.119 85.4956 137.738 78.115 129.119 77.9941 124.558 77.9941 120.479 79.6656 117.398 82.7065 114.256 85.7977 112.525 89.9362 112.525 94.3565 112.525 102.513 105.889 109.138 97.743 109.138 89.5869 109.138 82.9613 102.503 82.9613 94.3565 82.9613 81.9612 87.8247 70.3514 96.6454 61.6504 105.315 53.1217 116.905 48.4395 129.31 48.4395L129.512 48.4395C154.171 48.7819 174.48 69.1015 174.823 93.7198 175.024 108.129 168.328 121.974 156.9 130.775 148.512 137.239 143.689 146.251 143.689 155.505L143.689 156.28C143.669 164.416 137.033 171.052 128.877 171.052ZM128.877 71.5601C141.222 71.7212 151.512 82.022 151.674 94.0347 151.775 101.305 148.532 108.011 142.763 112.441 128.635 123.316 120.53 139.015 120.53 155.497L120.53 156.272C120.53 160.874 124.275 164.62 128.877 164.62 133.479 164.62 137.225 160.874 137.225 156.272L137.225 155.497C137.225 144.229 142.954 133.355 152.953 125.662 162.78 118.1 168.54 106.188 168.359 93.8043 168.067 72.6288 150.607 55.1694 129.43 54.8755L129.259 54.8755C118.586 54.8755 108.607 58.9032 101.146 66.2335 93.5643 73.7048 89.3855 83.6934 89.3855 94.3564 89.3855 98.9582 93.1312 102.704 97.733 102.704 102.335 102.704 106.08 98.9582 106.08 94.3564 106.08 88.2042 108.497 82.4345 112.877 78.1248 117.157 73.8857 122.846 71.5596 128.877 71.5596ZM128.877 209.156C120.721 209.156 114.095 202.521 114.095 194.364 114.095 186.208 120.731 179.583 128.877 179.583 137.033 179.583 143.669 186.208 143.669 194.364 143.669 202.521 137.033 209.156 128.877 209.156ZM128.877 186.027C124.275 186.027 120.53 189.773 120.53 194.364 120.53 198.966 124.275 202.712 128.877 202.712 133.479 202.712 137.224 198.966 137.224 194.364 137.224 189.773 133.479 186.027 128.877 186.027Z" transform="matrix(1.00159 0 0 1 23.9091 431.777)"/><text font-family="Arial,Arial_MSFontService,sans-serif" font-weight="700" font-size="5" transform="matrix(2.58182 0 0 2.57772 23.9091 735)">Created by MihiMihi</text><text font-family="Arial,Arial_MSFontService,sans-serif" font-weight="700" font-size="5" transform="matrix(2.58182 0 0 2.57772 23.9091 748)">from Noun Project</text></g></svg>