<svg width="175" height="236" xmlns="http://www.w3.org/2000/svg" xmlns:xlink="http://www.w3.org/1999/xlink" xml:space="preserve" overflow="hidden"><defs><clipPath id="clip0"><rect x="253" y="350" width="175" height="236"/></clipPath></defs><g clip-path="url(#clip0)" transform="translate(-253 -350)"><path d="M104.9 209.8C102.137 209.8 99.9079 212.038 99.9079 214.792 99.9079 216.122 100.432 217.386 101.369 218.323 102.306 219.26 103.579 219.794 104.9 219.794L134.872 219.794C136.192 219.794 137.466 219.26 138.403 218.323 139.339 217.386 139.864 216.122 139.864 214.792 139.864 213.471 139.339 212.198 138.403 211.261 137.466 210.324 136.192 209.8 134.872 209.8Z" fill="#FFFFFF" transform="matrix(1 0 0 1 222.085 344.673)"/><path d="M89.9142 189.822C87.1513 189.822 84.9222 192.051 84.9222 194.814 84.9222 196.135 85.4466 197.408 86.3833 198.345 87.3199 199.282 88.5938 199.806 89.9145 199.806L149.857 199.806C151.178 199.806 152.452 199.282 153.388 198.345 154.325 197.409 154.85 196.135 154.85 194.814 154.85 193.493 154.325 192.22 153.388 191.283 152.452 190.346 151.178 189.822 149.857 189.822Z" fill="#FFFFFF" transform="matrix(1 0 0 1 222.085 344.673)"/><path d="M119.886 19.9777C81.3256 19.9777 49.9491 51.3542 49.9491 89.9142L49.9491 89.9329C50.0053 116.869 65.8059 140.923 89.9142 152.47L89.9142 164.843C89.9142 173.057 96.6858 179.828 104.9 179.828L134.871 179.828C143.085 179.828 149.857 173.057 149.857 164.843L149.857 152.47C173.956 140.912 189.767 116.869 189.822 89.9329L189.822 89.9142C189.822 51.3542 158.446 19.9777 119.886 19.9777ZM119.886 29.9714C153.051 29.9714 179.828 56.7491 179.828 89.9142 179.772 114.069 165.255 135.826 142.954 145.117 141.09 145.885 139.872 147.702 139.863 149.716L139.863 164.842C139.863 167.698 137.718 169.834 134.871 169.834L104.9 169.834C102.043 169.834 99.9076 167.698 99.9076 164.842L99.9076 149.716C99.8983 147.702 98.6807 145.885 96.8261 145.117 74.5161 135.816 59.99 114.059 59.9421 89.895 59.9514 56.7395 86.7293 29.9714 119.885 29.9714Z" fill="#FFFFFF" transform="matrix(1 0 0 1 222.085 344.673)"/><text fill="#FFFFFF" font-family="Arial,Arial_MSFontService,sans-serif" font-weight="700" font-size="5" transform="matrix(2.39772 0 0 2.39771 222.085 626)">Created by Ian Anandara</text><text fill="#FFFFFF" font-family="Arial,Arial_MSFontService,sans-serif" font-weight="700" font-size="5" transform="matrix(2.39772 0 0 2.39771 222.085 638)">from Noun Project</text></g></svg>