<svg width="100" height="100" xmlns="http://www.w3.org/2000/svg" xmlns:xlink="http://www.w3.org/1999/xlink" xml:space="preserve" overflow="hidden"><defs><clipPath id="clip0"><rect x="516" y="435" width="100" height="100"/></clipPath></defs><g clip-path="url(#clip0)" transform="translate(-516 -435)"><path d="M71.83 26.25C72.04 25.61 72.26 24.85 72.4 24.14 72.69 22.69 72.81 21.2 72.72 19.7 72.55 16.72 71.54 13.7 69.72 11.23 68.05 8.95 65.73 7.06 63.07 5.96 61.74 5.4 60.35 5.03 58.93 4.85 58.23 4.76 57.5 4.72 56.81 4.71L55.14 4.71C54 4.71 52.85 5.28 52.17 6.3L36.13 30.35 34.13 33.36C33.64 34.09 33.13 34.65 32.48 35.14 31.85 35.63 31.13 36 30.37 36.25 29.99 36.37 29.6 36.49 29.2 36.5L28.6 36.55C28.38 36.56 28.26 36.61 27.91 36.6L20.68 36.6C20.68 36.6 17.07 36.6 17.07 36.6L16.61 36.6C16.61 36.6 15.98 36.63 15.98 36.63 15.56 36.64 15.14 36.68 14.72 36.76 14.3 36.81 13.89 36.9 13.48 37.02 13.07 37.12 12.67 37.25 12.27 37.4 9.09 38.58 6.46 41.1 5.16 44.23 4.5 45.77 4.19 47.54 4.2 49.13L4.2 52.74C4.2 52.74 4.2 67.19 4.2 67.19L4.2 81.64C4.2 81.64 4.2 82.09 4.2 82.09L4.2 82.32C4.2 82.32 4.21 82.63 4.21 82.63 4.24 83.05 4.23 83.47 4.3 83.89 4.41 84.73 4.59 85.56 4.87 86.36 5.42 87.96 6.3 89.44 7.43 90.69 9.68 93.19 13.03 94.72 16.4 94.75 23.59 94.76 34 95.74 34.48 92.06 34.52 91.74 34.48 91.45 34.37 91.19 34.42 91.19 34.46 91.19 34.51 91.18 34.49 91.32 34.49 91.46 34.5 91.61 34.76 95.71 48.19 95.25 57.23 95.27L69.12 95.27C69.96 95.28 71.47 95.27 72.76 95.05 74.08 94.84 75.36 94.43 76.57 93.89 79 92.81 81.15 91.1 82.75 88.97 83.55 87.91 84.23 86.75 84.73 85.52L85.85 82.7 88.03 77.17 92.39 66.11 94.57 60.55C95.49 58.18 95.87 55.61 95.72 53.09 95.43 48.05 92.9 43.16 88.81 40.1 86.8 38.56 84.45 37.52 82.04 36.95 80.83 36.67 79.6 36.52 78.37 36.48 77.7 36.46 77.25 36.47 76.75 36.48L75.26 36.48C75.26 36.48 68.41 36.53 68.41 36.53L71.24 27.95 71.79 26.27ZM17.29 89.16C16.63 89.16 16.21 89.15 15.74 89.08 15.28 89.02 14.83 88.91 14.39 88.75 13.52 88.44 12.72 87.94 12.04 87.31 10.68 86.04 9.89 84.23 9.91 82.37L9.96 67.82 9.98 53.27 9.98 49.63C9.98 48.96 9.98 48.59 10.06 48.12 10.12 47.67 10.22 47.22 10.38 46.8 10.99 45.09 12.34 43.65 14.01 42.93 14.85 42.57 15.74 42.4 16.68 42.39L20.32 42.39C20.32 42.39 27.6 42.39 27.6 42.39 28.15 42.41 28.96 42.32 29.67 42.26 29.93 42.24 30.19 42.2 30.45 42.16 30.47 49.29 30.94 56.42 30.94 63.55 30.9 63.55 30.85 63.55 30.94 63.55 30.94 71.64 30.92 79.74 30.96 87.83 30.96 88.31 30.84 88.87 30.85 89.39 27.15 88.79 21.41 89.19 17.28 89.16ZM76.65 42.55C77.12 42.55 77.68 42.55 78.06 42.57 78.89 42.6 79.71 42.7 80.51 42.9 82.11 43.28 83.62 43.97 84.9 44.95 87.48 46.86 89.09 49.99 89.28 53.18 89.39 54.78 89.14 56.38 88.58 57.86 88.46 58.19 88.25 58.69 88.06 59.13L87.49 60.49 86.35 63.21 81.78 74.06 79.48 79.48 78.33 82.19C78.12 82.7 77.99 82.95 77.82 83.28 77.64 83.59 77.46 83.9 77.25 84.18 76.42 85.33 75.31 86.28 74.04 86.87 73.41 87.17 72.75 87.4 72.07 87.53 71.36 87.66 70.75 87.7 69.95 87.68L58.19 87.32C50.8 87.08 40.91 86.8 36.63 88.83 36.6 88.53 36.56 88.24 36.57 87.98 37.15 72.15 35.68 56.31 38.41 40.5 38.57 39.56 38.75 38.41 38.23 37.51 38.42 37.27 38.6 37.03 38.77 36.78L40.8 33.73 56.29 10.46C57.56 10.46 58.59 10.53 59.69 10.86 61.06 11.26 62.34 11.93 63.42 12.86 65.63 14.73 66.91 17.46 66.96 20.37 66.98 21.09 66.92 21.82 66.8 22.54 66.74 22.9 66.66 23.25 66.57 23.61 66.47 23.97 66.37 24.28 66.22 24.72L64.56 29.64 61.23 39.48C61.16 39.7 61.11 39.95 61.11 40.19 61.11 41.44 62.11 42.46 63.36 42.47L63.39 42.47C63.39 42.47 75.17 42.55 75.17 42.55L76.64 42.55Z" fill="#877EFF" transform="matrix(1 0 0 1.00115 516 435)"/><text fill="#FFFFFF" font-family="Arial,Arial_MSFontService,sans-serif" font-weight="700" font-size="5" transform="matrix(1 0 0 1.00115 516 550)">Created by Gregor Cresnar</text><text fill="#FFFFFF" font-family="Arial,Arial_MSFontService,sans-serif" font-weight="700" font-size="5" transform="matrix(1 0 0 1.00115 516 555)">from the Noun Project</text></g></svg>