<svg width="100" height="100" xmlns="http://www.w3.org/2000/svg" xmlns:xlink="http://www.w3.org/1999/xlink" xml:space="preserve" overflow="hidden"><defs><clipPath id="clip0"><rect x="168" y="84" width="100" height="100"/></clipPath></defs><g clip-path="url(#clip0)" transform="translate(-168 -84)"><path d="M81.1247 32.6553 67.9962 32.6553 71.1623 19.9919C71.7854 17.4975 71.4446 14.8596 70.2074 12.6054 68.9702 10.3512 66.9272 8.64802 64.4875 7.83469L64.4756 7.83104 64.4756 7.83013C62.3521 7.122 60.0542 7.13203 57.9361 7.85936 55.8181 8.58578 53.9979 9.98836 52.7561 11.8513L46.1644 21.7389 29.7904 38.1129 29.7904 88.5986 46.1644 92.6931 76.1639 92.6931C79.9989 92.6931 83.7114 91.3471 86.6554 88.8901 89.5994 86.4331 91.5877 83.0202 92.274 79.2474L97.2356 51.9567C98.1045 47.1797 96.808 42.2637 93.6967 38.5368 90.5863 34.8086 85.9813 32.6543 81.1257 32.6543L81.1247 32.6553ZM12.0521 32.6553C14.5849 32.6553 17.0146 33.6614 18.8055 35.4532 20.5973 37.2441 21.6033 39.6737 21.6033 42.2065L21.6033 83.1415C21.6033 85.6753 20.5973 88.105 18.8055 89.8958 17.0146 91.6867 14.5849 92.6937 12.0521 92.6937 9.51836 92.6937 7.0887 91.6867 5.29785 89.8958 3.507 88.1049 2.5 85.6753 2.5 83.1415L2.5 42.2065C2.5 39.6737 3.50693 37.244 5.29785 35.4532 7.08875 33.6614 9.51836 32.6553 12.0521 32.6553Z" fill="#FFFFFF" transform="matrix(1 0 0 1.00115 168 84)"/><text fill="#FFFFFF" font-family="Arial,Arial_MSFontService,sans-serif" font-weight="700" font-size="5" transform="matrix(1 0 0 1.00115 168 199)">Created by william</text><text fill="#FFFFFF" font-family="Arial,Arial_MSFontService,sans-serif" font-weight="700" font-size="5" transform="matrix(1 0 0 1.00115 168 204)">from the Noun Project</text></g></svg>