<svg width="250" height="265" xmlns="http://www.w3.org/2000/svg" xmlns:xlink="http://www.w3.org/1999/xlink" xml:space="preserve" overflow="hidden"><defs><clipPath id="clip0"><rect x="261" y="429" width="250" height="265"/></clipPath></defs><g clip-path="url(#clip0)" transform="translate(-261 -429)"><path d="M7.61799 89.9173 7.61799 89.9173 27.15 209.807C27.9138 214.265 31.769 217.53 36.2916 217.55 96.2365 217.55 156.181 217.159 216.126 216.376L216.376 216.376C220.221 216.361 223.504 213.594 224.169 209.807L242.277 89.5177 242.277 89.2929C242.756 85.9752 240.455 82.8975 237.137 82.4184 235.77 82.2211 234.376 82.4964 233.186 83.1985 213.379 95.0376 193.972 107.601 173.565 120.664L173.565 120.664C170.478 122.563 167.966 125.265 166.297 128.482 165.548 130.68 167.771 130.98 171.292 129.231L172.292 128.732C190.4 119.515 209.183 109.899 227.84 99.9081L209.407 200.316C154.325 199.666 99.242 199.317 44.1594 199.267L28.1241 105.178 82.4242 135.4 82.599 135.4 83.3483 135.75C87.3419 137.45 91.9574 135.595 93.6638 131.604L126.584 54.0253C138.223 78.5278 150.187 102.706 161.751 125.984 163.525 129.581 165.498 130.68 166.197 128.482 166.739 124.92 166.272 121.277 164.848 117.966L164.449 116.917C153.509 89.0681 143.193 62.4426 132.079 35.9669 131.457 34.525 130.328 33.3608 128.906 32.6949 125.741 31.2258 121.984 32.601 120.514 35.7668 120.514 35.7668 120.514 35.7671 120.514 35.7671L120.514 35.9669 82.7239 117.142 20.706 80.8506C18.9809 79.8421 16.9596 79.4627 14.9862 79.7766 10.1958 80.4807 6.88339 84.9351 7.58762 89.7255 7.59704 89.7894 7.60715 89.8533 7.61799 89.9173Z" fill="#9272F0" transform="matrix(1.00092 0 0 1 261 429)"/><text fill="#9272F0" font-family="Arial,Arial_MSFontService,sans-serif" font-weight="700" font-size="5" transform="matrix(2.5 0 0 2.4977 261 716)">Created by Gregor Cresnar</text><text fill="#9272F0" font-family="Arial,Arial_MSFontService,sans-serif" font-weight="700" font-size="5" transform="matrix(2.5 0 0 2.4977 261 729)">from the Noun Project</text></g></svg>