<svg width="240" height="240" xmlns="http://www.w3.org/2000/svg" xmlns:xlink="http://www.w3.org/1999/xlink" xml:space="preserve" overflow="hidden"><defs><clipPath id="clip0"><rect x="434" y="323" width="240" height="240"/></clipPath></defs><g clip-path="url(#clip0)" transform="translate(-434 -323)"><path d="M960 91.8225 864.322 187.5 975 187.5C977.602 187.5 980.01 186.158 981.383 183.945 982.748 181.733 982.867 178.973 981.705 176.647 981.705 176.647 968.573 150.375 962.378 137.977 960.81 134.858 960 131.408 960 127.92L960 91.8225Z" fill="#3C28CC" fill-rule="evenodd" transform="matrix(1 0 0 1.00064 -346 323)"/><path d="M532.5 202.5 487.5 202.5 487.5 202.515C487.5 208.478 489.87 214.2 494.085 218.415 498.3 222.63 504.023 225 509.985 225L510 225C515.97 225 521.693 222.63 525.908 218.408 530.13 214.193 532.5 208.47 532.5 202.5Z" fill="#3C28CC" fill-rule="evenodd" transform="matrix(1 0 0 1.00064 44 323)"/><path d="M822.375 187.02 797.198 212.197C794.273 215.122 794.273 219.878 797.198 222.803 800.122 225.728 804.878 225.728 807.802 222.803L1002.8 27.8025C1005.74 24.8775 1005.74 20.1225 1002.8 17.1975 999.878 14.2725 995.122 14.2725 992.198 17.1975L951.008 58.3875C941.67 43.3575 925.875 32.76 907.5 30.465L907.5 22.5C907.5 18.36 904.14 15 900 15 895.86 15 892.5 18.36 892.5 22.5L892.5 30.465C862.905 34.155 840 59.4 840 90 840 110.738 840 117.158 840 127.92 840 131.408 839.19 134.858 837.622 137.977 831.427 150.375 818.295 176.647 818.295 176.647 817.132 178.973 817.253 181.733 818.617 183.945 819.51 185.377 820.838 186.45 822.375 187.02Z" fill="#3C28CC" fill-rule="evenodd" transform="matrix(1 0 0 1.00064 -346 323)"/><text fill="#3C28CC" font-family="Arial,Arial_MSFontService,sans-serif" font-weight="700" font-size="5" transform="matrix(7.5 0 0 7.50478 434 676)">Created by AmruID</text><text fill="#3C28CC" font-family="Arial,Arial_MSFontService,sans-serif" font-weight="700" font-size="5" transform="matrix(7.5 0 0 7.50478 434 713)">from the Noun Project</text></g></svg>