<svg width="195" height="223" xmlns="http://www.w3.org/2000/svg" xmlns:xlink="http://www.w3.org/1999/xlink" xml:space="preserve" overflow="hidden"><g transform="translate(-179 -340)"><path d="M97.5 0C89.7958 0 83.5714 6.22433 83.5714 13.9286L83.5714 22.2857C51.7969 28.7277 27.8571 56.846 27.8571 90.5357L27.8571 101.592C27.8571 121.353 21.1105 140.548 8.79241 155.956L2.30692 164.096C-0.217634 167.23-0.696429 171.539 1.04464 175.152 2.78571 178.765 6.44196 181.071 10.4464 181.071L184.554 181.071C188.558 181.071 192.214 178.765 193.955 175.152 195.696 171.539 195.218 167.23 192.693 164.096L186.208 156C173.89 140.548 167.143 121.353 167.143 101.592L167.143 90.5357C167.143 56.846 143.203 28.7277 111.429 22.2857L111.429 13.9286C111.429 6.22433 105.204 0 97.5 0ZM97.5 41.7857C124.443 41.7857 146.25 63.5926 146.25 90.5357L146.25 101.592C146.25 122.441 152.3 142.768 163.53 160.179L31.4699 160.179C42.6998 142.768 48.75 122.441 48.75 101.592L48.75 90.5357C48.75 63.5926 70.5569 41.7857 97.5 41.7857ZM125.357 195 97.5 195 69.6429 195C69.6429 202.4 72.5592 209.494 77.7824 214.718 83.0056 219.941 90.1004 222.857 97.5 222.857 104.9 222.857 111.994 219.941 117.218 214.718 122.441 209.494 125.357 202.4 125.357 195Z" fill="#FFFFFF" transform="matrix(1 0 0 1.00064 179 340)"/></g></svg>