<svg width="248" height="248" xmlns="http://www.w3.org/2000/svg" xmlns:xlink="http://www.w3.org/1999/xlink" xml:space="preserve" overflow="hidden"><g transform="translate(-404 -348)"><path d="M497 360.917C469.892 360.917 447.917 382.892 447.917 410 447.917 437.108 469.892 459.083 497 459.083 524.108 459.083 546.083 437.108 546.083 410 546.083 382.892 524.108 360.917 497 360.917ZM463.417 410C463.417 391.452 478.452 376.417 497 376.417 515.547 376.417 530.583 391.452 530.583 410 530.583 428.548 515.547 443.583 497 443.583 478.452 443.583 463.417 428.548 463.417 410Z" fill="#FFFFFF" fill-rule="evenodd"/><path d="M559 371.25C554.72 371.25 551.25 374.72 551.25 379 551.25 383.28 554.72 386.75 559 386.75 571.84 386.75 582.25 397.159 582.25 410 582.25 422.841 571.84 433.25 559 433.25 554.72 433.25 551.25 436.72 551.25 441 551.25 445.28 554.72 448.75 559 448.75 580.401 448.75 597.75 431.401 597.75 410 597.75 388.599 580.401 371.25 559 371.25Z" fill="#FFFFFF"/><path d="M442.008 487.711C456.468 479.448 475.927 474.583 497 474.583 518.073 474.583 537.532 479.448 551.993 487.711 566.233 495.848 577.083 508.271 577.083 523.667 577.083 539.062 566.233 551.485 551.993 559.623 537.532 567.885 518.073 572.75 497 572.75 475.927 572.75 456.468 567.885 442.008 559.623 427.767 551.485 416.917 539.062 416.917 523.667 416.917 508.271 427.767 495.848 442.008 487.711ZM449.698 501.169C437.759 507.991 432.417 516.234 432.417 523.667 432.417 531.099 437.759 539.342 449.698 546.164 461.417 552.861 478.125 557.25 497 557.25 515.876 557.25 532.583 552.861 544.302 546.164 556.241 539.342 561.583 531.099 561.583 523.667 561.583 516.234 556.241 507.991 544.302 501.169 532.583 494.472 515.876 490.083 497 490.083 478.125 490.083 461.417 494.472 449.698 501.169Z" fill="#FFFFFF" fill-rule="evenodd"/><path d="M591.661 485.096C587.48 484.18 583.346 486.825 582.43 491.006 581.513 495.187 584.159 499.32 588.339 500.237 596.528 502.033 603.071 505.116 607.39 508.65 611.714 512.188 613.25 515.645 613.25 518.5 613.25 521.091 612.004 524.132 608.568 527.324 605.107 530.538 599.791 533.508 592.933 535.574 588.833 536.808 586.511 541.13 587.745 545.229 588.98 549.327 593.302 551.649 597.401 550.416 605.901 547.856 613.501 543.897 619.117 538.68 624.758 533.439 628.75 526.546 628.75 518.5 628.75 509.564 623.85 502.091 617.206 496.654 610.556 491.213 601.599 487.276 591.661 485.096Z" fill="#FFFFFF"/></g></svg>