<svg width="165" height="171" xmlns="http://www.w3.org/2000/svg" xmlns:xlink="http://www.w3.org/1999/xlink" xml:space="preserve" overflow="hidden"><defs><clipPath id="clip0"><rect x="335" y="169" width="165" height="171"/></clipPath></defs><g clip-path="url(#clip0)" transform="translate(-335 -169)"><path d="M82.5 154.688C81.9351 154.682 81.3857 154.502 80.9273 154.172 78.6844 152.445 25.7812 111.633 25.7812 67.0312 25.7812 35.7063 51.1751 10.3125 82.5 10.3125 113.825 10.3125 139.219 35.7063 139.219 67.0312 139.219 111.633 86.3156 152.445 84.0727 154.172 83.6143 154.502 83.0649 154.682 82.5 154.688ZM82.5 15.4688C54.0228 15.4688 30.9375 38.5541 30.9375 67.0312 30.9375 104.955 73.7086 141.797 82.5 148.809 91.2914 141.797 134.062 104.93 134.062 67.0312 134.062 38.5541 110.977 15.4688 82.5 15.4688Z" transform="matrix(1 0 0 1.00179 335 169)"/><path d="M82.5 97.7625C81.811 97.7596 81.1518 97.4811 80.6695 96.9891L56.5125 72.832C49.9272 66.2609 49.9156 55.5955 56.4867 49.0102 63.0578 42.4248 73.7232 42.4133 80.3086 48.9844L82.5 51.2016 84.743 48.9844C91.2352 42.3485 101.878 42.232 108.514 48.7242 115.149 55.2165 115.266 65.8589 108.774 72.4949 108.679 72.5912 108.584 72.6864 108.487 72.7805L84.3047 96.9891C83.8287 97.4748 83.18 97.7528 82.5 97.7625ZM68.3977 49.2422C65.3002 49.238 62.3297 50.4726 60.1477 52.6711 55.5948 57.2389 55.5948 64.629 60.1477 69.1969L82.5 91.5234 104.878 69.1711 104.878 69.1711C107.061 66.9705 108.285 63.9952 108.281 60.8953 108.313 54.4738 103.133 49.2426 96.711 49.2112 93.5809 49.1958 90.5768 50.4432 88.3781 52.6711L84.3047 56.7188C83.2991 57.7183 81.6751 57.7183 80.6695 56.7188L76.6477 52.6969C74.4749 50.4816 71.5006 49.2361 68.3977 49.2422Z" transform="matrix(1 0 0 1.00179 335 169)"/><text font-family="Arial,Arial_MSFontService,sans-serif" font-weight="700" font-size="5" transform="matrix(2.57812 0 0 2.58274 335 373)">Created by tezar tantular</text><text font-family="Arial,Arial_MSFontService,sans-serif" font-weight="700" font-size="5" transform="matrix(2.57812 0 0 2.58274 335 386)">from the Noun Project</text></g></svg>