<svg width="110" height="116" xmlns="http://www.w3.org/2000/svg" xmlns:xlink="http://www.w3.org/1999/xlink" xml:space="preserve" overflow="hidden"><defs><clipPath id="clip0"><rect x="585" y="293" width="110" height="116"/></clipPath></defs><g clip-path="url(#clip0)" transform="translate(-585 -293)"><path d="M16.6287 58.1945C18.9124 58.1945 20.783 56.3239 20.783 54.0402L20.783 29.0991C20.783 26.8115 22.6536 24.941 24.9412 24.941L73.1203 24.941 69.8351 28.2262C68.2139 29.8474 68.2139 32.4662 69.8351 34.0873 70.6651 34.9174 71.7056 35.2915 72.7851 35.2915 73.8684 35.2915 74.9051 34.8745 75.739 34.0873L86.1284 23.6939C87.7496 22.0727 87.7496 19.4539 86.1284 17.8328L75.739 7.43932C74.1178 5.81815 71.499 5.81815 69.8779 7.43932 68.2567 9.06049 68.2567 11.6793 69.8779 13.3005L73.1202 16.6285 24.9411 16.6285C18.0823 16.6285 12.4705 22.2402 12.4705 29.099L12.4705 54.0401C12.4705 56.3238 14.3411 58.1944 16.6287 58.1944Z" fill="#877EFF" transform="matrix(1.00236 0 0 1 590 302.976)"/><path d="M83.1355 41.5698C80.8518 41.5698 78.9812 43.4403 78.9812 45.724L78.9812 78.9814C78.9812 81.2651 77.1107 83.1357 74.8231 83.1357L24.941 83.1357C22.6534 83.1357 20.7828 81.2651 20.7828 78.9814L20.7828 66.5498C20.7828 64.2661 18.9122 62.3955 16.6285 62.3955 14.3409 62.3955 12.4703 64.2661 12.4703 66.5498L12.4703 78.9814C12.4703 85.8402 18.0821 91.452 24.9409 91.452L74.823 91.452C81.6818 91.452 87.2935 85.8402 87.2935 78.9814L87.2935 45.724C87.2935 43.4403 85.4229 41.5698 83.1353 41.5698Z" fill="#877EFF" transform="matrix(1.00236 0 0 1 590 302.976)"/><path d="M49.8821 74.8232C52.1697 74.8232 54.0403 72.9526 54.0403 70.665L54.0403 58.1945 66.5108 58.1945C68.7945 58.1945 70.6651 56.3239 70.6651 54.0402 70.6651 51.7526 68.7945 49.882 66.5108 49.882L54.0403 49.882 54.0403 37.4115C54.0403 35.1239 52.1697 33.2533 49.8821 33.2533 47.5945 33.2533 45.7239 35.1239 45.7239 37.4115L45.7239 49.882 33.2534 49.882C30.9697 49.882 29.0991 51.7526 29.0991 54.0402 29.0991 56.3239 30.9697 58.1945 33.2534 58.1945L45.7239 58.1945 45.7239 70.665C45.7239 72.9526 47.5945 74.8232 49.8821 74.8232Z" fill="#877EFF" transform="matrix(1.00236 0 0 1 590 302.976)"/><text fill="#877EFF" font-family="Arial,Arial_MSFontService,sans-serif" font-weight="700" font-size="5" transform="matrix(1 0 0 0.997642 590 420)">Created by hafizh hapis</text><text fill="#877EFF" font-family="Arial,Arial_MSFontService,sans-serif" font-weight="700" font-size="5" transform="matrix(1 0 0 0.997642 590 425)">from Noun Project</text></g></svg>