<svg width="157" height="157" xmlns="http://www.w3.org/2000/svg" xmlns:xlink="http://www.w3.org/1999/xlink" xml:space="preserve" overflow="hidden"><defs><clipPath id="clip0"><rect x="293" y="373" width="157" height="157"/></clipPath></defs><g clip-path="url(#clip0)" transform="translate(-293 -373)"><path d="M136.119 66.3639C135.522 66.3639 134.941 66.4424 134.392 66.5994L134.392 63.8048C134.392 60.0525 131.707 56.9439 128.159 56.2531L128.159 26.5173C128.159 19.2639 122.256 13.345 114.987 13.345L27.6163 13.345C20.3629 13.345 14.444 19.2482 14.444 26.5173L14.444 103.055C14.444 110.308 20.3472 116.227 27.6163 116.227L91.9863 116.227C92.7556 119.053 94.1686 121.659 96.1625 123.873L100.072 128.175 100.072 141.316C100.072 142.619 101.124 143.671 102.427 143.671L128.661 143.671C129.965 143.671 131.016 142.619 131.016 141.316L131.016 128.143 136.166 122.287C140.279 117.609 142.54 111.596 142.54 105.363L142.54 72.8166C142.54 69.2684 139.652 66.3796 136.103 66.3796ZM27.6163 111.517C22.9534 111.517 19.154 107.718 19.154 103.055L19.154 26.5173C19.154 21.8544 22.9534 18.055 27.6163 18.055L115.003 18.055C119.665 18.055 123.465 21.8544 123.465 26.5173L123.465 56.4101C122.617 53.223 119.728 50.8523 116.29 50.8523 112.852 50.8523 109.884 53.2701 109.084 56.52 107.388 48.7171 103.322 41.7777 97.7011 36.5025 97.6697 36.4711 97.6697 36.4397 97.6383 36.4083 97.6069 36.3769 97.5755 36.3769 97.5441 36.3612 93.4307 32.5461 88.5009 29.6102 83.053 27.8518 83.0059 27.8518 82.9745 27.8204 82.9431 27.8047 82.9117 27.8047 82.8803 27.8047 82.8646 27.789 79.1751 26.6272 75.2501 25.9835 71.1838 25.9835 49.7847 25.9835 32.3734 43.3948 32.3734 64.7939 32.3734 86.193 49.7847 103.604 71.1838 103.604 78.5628 103.604 85.4865 101.532 91.3583 97.9366L91.3583 111.376C91.3583 111.376 91.3583 111.47 91.3583 111.517L27.6163 111.517ZM77.5737 54.4476C77.3853 54.3377 77.2126 54.2121 77.0242 54.1179L83.7124 33.0956C86.9466 34.383 89.9453 36.1571 92.6143 38.308L77.5737 54.4476ZM78.6413 64.7939C78.6413 68.923 75.2815 72.2671 71.1681 72.2671 67.0547 72.2671 63.6949 68.9073 63.6949 64.7939 63.6949 60.6805 67.0547 57.3207 71.1681 57.3207 75.2815 57.3207 78.6413 60.6805 78.6413 64.7939ZM91.3426 87.8886 91.3426 92.2532C85.6906 96.4137 78.7041 98.8943 71.1681 98.8943 52.3595 98.8943 37.0677 83.6025 37.0677 64.7939 37.0677 45.9853 52.3595 30.6935 71.1681 30.6935 73.947 30.6935 76.6474 31.0389 79.2379 31.6669L72.5497 52.6892C72.0944 52.6421 71.6391 52.6107 71.1681 52.6107 64.4485 52.6107 58.9849 58.0743 58.9849 64.7939 58.9849 71.5135 64.4485 76.9771 71.1681 76.9771 77.8877 76.9771 83.3513 71.5135 83.3513 64.7939 83.3513 62.1249 82.4878 59.6757 81.0277 57.6661L96.0683 41.5422C100.967 46.786 104.232 53.5684 105.064 61.073 102.207 61.858 100.103 64.4485 100.103 67.5414L100.103 81.483C99.4595 81.2789 98.7844 81.169 98.0779 81.169 94.3727 81.169 91.3426 84.1834 91.3426 87.9043ZM137.862 105.347C137.862 110.434 136.009 115.348 132.649 119.163L126.919 125.679C126.542 126.102 126.338 126.668 126.338 127.233L126.338 138.929 104.813 138.929 104.813 127.233C104.813 126.652 104.593 126.087 104.201 125.647L99.6793 120.686C97.3557 118.127 96.0683 114.814 96.0683 111.36L96.0683 87.8729C96.0683 86.7582 96.9789 85.8476 98.0936 85.8476 99.2083 85.8476 100.119 86.7582 100.119 87.8729L100.119 99.4909C100.119 100.794 101.171 101.846 102.474 101.846 103.777 101.846 104.829 100.794 104.829 99.4909L104.829 67.51C104.829 66.3953 105.74 65.4847 106.854 65.4847 107.969 65.4847 108.88 66.3953 108.88 67.51L108.88 92.2532C108.88 93.5563 109.931 94.6082 111.235 94.6082 112.538 94.6082 113.59 93.5563 113.59 92.2532L113.59 58.2941C113.59 56.7869 114.814 55.5623 116.321 55.5623 117.829 55.5623 119.053 56.7869 119.053 58.2941L119.053 92.2532C119.053 93.5563 120.105 94.6082 121.408 94.6082 122.711 94.6082 123.763 93.5563 123.763 92.2532L123.763 63.7891C123.763 62.1406 125.098 60.8061 126.746 60.8061 128.395 60.8061 129.729 62.1406 129.729 63.7891L129.729 93.6819C129.729 94.985 130.781 96.0369 132.084 96.0369 133.387 96.0369 134.439 94.985 134.439 93.6819L134.439 72.7852C134.439 71.8432 135.208 71.0582 136.166 71.0582 137.124 71.0582 137.893 71.8275 137.893 72.7852L137.893 105.331Z" fill="#DE5726" transform="matrix(1 0 0 1.00136 293 373)"/><path d="M111.454 38.6691C115.835 38.6691 119.414 35.1052 119.414 30.7092 119.414 26.3132 115.85 22.7493 111.454 22.7493 107.058 22.7493 103.494 26.3132 103.494 30.7092 103.494 35.1052 107.058 38.6691 111.454 38.6691ZM111.454 27.475C113.244 27.475 114.704 28.9351 114.704 30.7249 114.704 32.5147 113.244 33.9748 111.454 33.9748 109.665 33.9748 108.204 32.5147 108.204 30.7249 108.204 28.9351 109.665 27.475 111.454 27.475Z" fill="#DE5726" transform="matrix(1 0 0 1.00136 293 373)"/><path d="M30.8505 38.6691C35.2308 38.6691 38.8104 35.1052 38.8104 30.7092 38.8104 26.3132 35.2465 22.7493 30.8505 22.7493 26.4545 22.7493 22.8906 26.3132 22.8906 30.7092 22.8906 35.1052 26.4545 38.6691 30.8505 38.6691ZM30.8505 27.475C32.6403 27.475 34.1004 28.9351 34.1004 30.7249 34.1004 32.5147 32.6403 33.9748 30.8505 33.9748 29.0607 33.9748 27.6006 32.5147 27.6006 30.7249 27.6006 28.9351 29.0607 27.475 30.8505 27.475Z" fill="#DE5726" transform="matrix(1 0 0 1.00136 293 373)"/><path d="M30.9918 91.845C26.6115 91.845 23.0319 95.4089 23.0319 99.8049 23.0319 104.201 26.5958 107.765 30.9918 107.765 35.3878 107.765 38.9517 104.201 38.9517 99.8049 38.9517 95.4089 35.3878 91.845 30.9918 91.845ZM30.9918 103.039C29.202 103.039 27.7419 101.579 27.7419 99.7892 27.7419 97.9994 29.202 96.5393 30.9918 96.5393 32.7816 96.5393 34.2417 97.9994 34.2417 99.7892 34.2417 101.579 32.7816 103.039 30.9918 103.039Z" fill="#DE5726" transform="matrix(1 0 0 1.00136 293 373)"/><text fill="#827AF5" font-family="Arial,Arial_MSFontService,sans-serif" font-weight="700" font-size="5" transform="matrix(1.57 0 0 1.57214 293 554)">Created by Lars Meiertoberens</text><text fill="#827AF5" font-family="Arial,Arial_MSFontService,sans-serif" font-weight="700" font-size="5" transform="matrix(1.57 0 0 1.57214 293 562)">from the Noun Project</text></g></svg>