<svg width="100" height="98" xmlns="http://www.w3.org/2000/svg" xmlns:xlink="http://www.w3.org/1999/xlink" xml:space="preserve" overflow="hidden"><defs><clipPath id="clip0"><rect x="660" y="183" width="100" height="98"/></clipPath></defs><g clip-path="url(#clip0)" transform="translate(-660 -183)"><path d="M5 10.0625 5.625 44.2812 17.6562 32.25C20.5694 37.3438 23.7821 43.7864 25.6562 48.4375 30.9696 61.6266 34.0579 76.0436 34.4375 89.5938 34.4403 89.7229 34.4375 89.8162 34.4375 89.9375L65.5625 89.9375C65.5625 89.8162 65.5597 89.7229 65.5625 89.5938 65.9427 76.0436 68.9992 61.6266 74.3125 48.4375 76.1867 43.7864 79.4306 37.3438 82.3438 32.25L94.375 44.2812 95 10.0625 60.75 10.6562 72.5312 22.4375C65.4897 29.5641 58.9903 37.5821 53.6562 45.9062 52.3946 47.875 51.1807 49.8886 50 51.9688 48.8193 49.8889 47.6048 47.8747 46.3438 45.9062 41.0098 37.5821 34.5107 29.5657 27.4688 22.4375L39.25 10.6562 5 10.0625Z" fill="#877EFF" fill-rule="evenodd" transform="matrix(1 0 0 1.00096 660 183)"/><text fill="#877EFF" font-family="Arial,Arial_MSFontService,sans-serif" font-weight="700" font-size="5" transform="matrix(1 0 0 1.00096 660 298)">Created by ImageCatalog</text><text fill="#877EFF" font-family="Arial,Arial_MSFontService,sans-serif" font-weight="700" font-size="5" transform="matrix(1 0 0 1.00096 660 303)">from the Noun Project</text></g></svg>