<svg width="206" height="203" xmlns="http://www.w3.org/2000/svg" xmlns:xlink="http://www.w3.org/1999/xlink" xml:space="preserve" overflow="hidden"><defs><clipPath id="clip0"><rect x="906" y="232" width="206" height="203"/></clipPath></defs><g clip-path="url(#clip0)" transform="translate(-906 -232)"><path d="M133.584 164.159C133.174 161.491 132.968 158.413 132.558 155.335 112.038 168.468 84.9521 169.083 63.4062 154.514 35.4993 135.636 27.4966 97.6743 45.3488 69.1518 64.4322 39.1929 104.035 30.7797 133.379 50.2736 142.408 56.2243 149.384 64.227 154.104 73.0506L135.431 84.7468 195.143 116.142 192.476 48.632 176.265 58.8919C169.494 47.1956 159.849 36.5253 147.743 28.5225 106.498 1.23119 50.684 12.9275 24.0082 54.7879-1.84678 95.0068 9.23392 149.179 48.8372 176.06 75.5129 194.117 108.139 195.759 135.431 183.447 135.431 182.216 135.431 180.985 135.226 179.548 134.815 174.418 134.405 169.289 133.584 164.159Z" fill="#9272F0" transform="matrix(1.00391 0 0 1 906 232)"/><text fill="#9272F0" font-family="Arial,Arial_MSFontService,sans-serif" font-weight="700" font-size="5" transform="matrix(2.06 0 0 2.05198 906 468)">Created by Christian Frost</text><text fill="#9272F0" font-family="Arial,Arial_MSFontService,sans-serif" font-weight="700" font-size="5" transform="matrix(2.06 0 0 2.05198 906 478)">from the Noun Project</text></g></svg>