<svg width="20" height="20" xmlns="http://www.w3.org/2000/svg" xmlns:xlink="http://www.w3.org/1999/xlink" xml:space="preserve" overflow="hidden"><g transform="translate(-677 -397)"><path d="M684.5 401.375C684.155 401.375 683.875 401.655 683.875 402 683.875 402.345 684.155 402.625 684.5 402.625L689.5 402.625C689.845 402.625 690.125 402.345 690.125 402 690.125 401.655 689.845 401.375 689.5 401.375L684.5 401.375Z" fill="#FFFFFF"/><path d="M686.952 398.042C685.225 398.042 683.864 398.042 682.801 398.186 681.709 398.335 680.838 398.646 680.154 399.338 679.471 400.029 679.164 400.906 679.018 402.007 678.875 403.08 678.875 404.454 678.875 406.201L678.875 410.449C678.875 411.706 678.875 412.701 678.955 413.449 679.034 414.189 679.204 414.857 679.688 415.303 680.077 415.662 680.568 415.888 681.093 415.948 681.749 416.023 682.362 415.709 682.966 415.282 683.576 414.849 684.317 414.194 685.252 413.367L685.283 413.34C685.716 412.957 686.009 412.698 686.254 412.519 686.491 412.346 686.635 412.283 686.757 412.259 686.917 412.227 687.083 412.227 687.243 412.259 687.365 412.283 687.509 412.346 687.746 412.519 687.991 412.698 688.284 412.957 688.718 413.34L688.748 413.367C689.683 414.194 690.424 414.849 691.034 415.282 691.638 415.709 692.251 416.023 692.907 415.948 693.432 415.888 693.923 415.662 694.312 415.303 694.796 414.857 694.966 414.189 695.045 413.449 695.125 412.701 695.125 411.706 695.125 410.449L695.125 406.201C695.125 404.454 695.125 403.08 694.982 402.007 694.836 400.906 694.529 400.029 693.846 399.338 693.162 398.646 692.291 398.335 691.199 398.186 690.136 398.042 688.775 398.042 687.048 398.042L686.952 398.042ZM681.043 400.217C681.457 399.798 682.019 399.554 682.969 399.425 683.939 399.293 685.214 399.292 687 399.292 688.786 399.292 690.061 399.293 691.031 399.425 691.981 399.554 692.543 399.798 692.957 400.217 693.372 400.636 693.615 401.207 693.743 402.171 693.874 403.153 693.875 404.444 693.875 406.248L693.875 410.409C693.875 411.715 693.874 412.642 693.802 413.316 693.728 414.008 693.592 414.267 693.465 414.384 693.27 414.564 693.025 414.676 692.765 414.706 692.599 414.725 692.32 414.66 691.757 414.262 691.208 413.873 690.518 413.263 689.546 412.404L689.524 412.384C689.118 412.025 688.781 411.727 688.484 411.51 688.173 411.283 687.859 411.108 687.49 411.034 687.167 410.968 686.833 410.968 686.51 411.034 686.141 411.108 685.827 411.283 685.516 411.51 685.219 411.727 684.882 412.025 684.476 412.384L684.454 412.404C683.482 413.263 682.792 413.873 682.243 414.262 681.68 414.66 681.401 414.725 681.235 414.706 680.975 414.676 680.73 414.564 680.535 414.384 680.408 414.267 680.272 414.008 680.198 413.316 680.126 412.642 680.125 411.715 680.125 410.409L680.125 406.248C680.125 404.444 680.126 403.153 680.257 402.171 680.385 401.207 680.628 400.636 681.043 400.217Z" fill="#FFFFFF" fill-rule="evenodd"/></g></svg>