<svg width="20" height="20" xmlns="http://www.w3.org/2000/svg" xmlns:xlink="http://www.w3.org/1999/xlink" xml:space="preserve" overflow="hidden"><g transform="translate(-494 -481)"><path d="M511.5 490.248 511.5 494.409C511.5 496.989 511.5 498.28 510.888 498.843 510.596 499.112 510.228 499.281 509.836 499.326 509.013 499.42 508.053 498.571 506.132 496.871 505.282 496.12 504.858 495.745 504.366 495.646 504.125 495.597 503.875 495.597 503.634 495.646 503.142 495.745 502.718 496.12 501.868 496.871 499.947 498.571 498.987 499.42 498.164 499.326 497.772 499.281 497.404 499.112 497.112 498.843 496.5 498.28 496.5 496.989 496.5 494.409L496.5 490.248C496.5 486.674 496.5 484.887 497.598 483.777 498.697 482.667 500.464 482.667 504 482.667 507.535 482.667 509.303 482.667 510.402 483.777 511.5 484.887 511.5 486.674 511.5 490.248ZM500.875 486C500.875 485.655 501.155 485.375 501.5 485.375L506.5 485.375C506.845 485.375 507.125 485.655 507.125 486 507.125 486.345 506.845 486.625 506.5 486.625L501.5 486.625C501.155 486.625 500.875 486.345 500.875 486Z" fill="#FFFFFF" fill-rule="evenodd"/></g></svg>