<svg width="188" height="191" xmlns="http://www.w3.org/2000/svg" xmlns:xlink="http://www.w3.org/1999/xlink" xml:space="preserve" overflow="hidden"><defs><clipPath id="clip0"><rect x="708" y="504" width="188" height="191"/></clipPath></defs><g clip-path="url(#clip0)" transform="translate(-708 -504)"><path d="M127.422 10.4444 60.5778 10.4444C32.9018 10.4732 10.4732 32.9018 10.4444 60.5778L10.4444 127.422C10.4732 155.098 32.9018 177.527 60.5778 177.556L127.422 177.556C155.098 177.527 177.527 155.098 177.556 127.422L177.556 60.5778C177.527 32.9018 155.098 10.4732 127.422 10.4444ZM166.432 127.422C166.403 148.955 148.955 166.403 127.422 166.432L60.5778 166.432C39.0451 166.403 21.5965 148.955 21.5678 127.422L21.5678 60.5778C21.5965 39.0451 39.0451 21.5965 60.5778 21.5678L127.422 21.5678C148.955 21.5965 166.403 39.0451 166.432 60.5778Z" transform="matrix(1 0 0 1.00213 708 504)"/><path d="M117.657 58.3322 106.586 57.4444 104.914 74.1556 87.1589 74.1556 88.7256 58.4889 77.6022 57.4444 75.9311 74.1556 61.4133 74.1556 61.4133 85.2789 74.8344 85.2789 73.1111 102.93 54.1544 102.93 54.1544 114.053 71.91 114.053 70.3433 129.72 81.4144 130.817 83.0856 114.106 100.841 114.106 99.2744 129.772 110.346 130.869 112.017 114.158 126.534 114.158 126.534 102.93 113.166 102.93 114.889 85.07 133.741 85.07 133.741 73.9467 115.986 73.9467ZM101.99 102.878 84.2344 102.878 86.01 85.07 103.766 85.07Z" transform="matrix(1 0 0 1.00213 708 504)"/><text font-family="Arial,Arial_MSFontService,sans-serif" font-weight="700" font-size="5" transform="matrix(5.22222 0 0 5.23334 708 771)">Created by Wahyu Adam</text><text font-family="Arial,Arial_MSFontService,sans-serif" font-weight="700" font-size="5" transform="matrix(5.22222 0 0 5.23334 708 797)">from the Noun Project</text></g></svg>