<svg width="210" height="200" xmlns="http://www.w3.org/2000/svg" xmlns:xlink="http://www.w3.org/1999/xlink" xml:space="preserve" overflow="hidden"><defs><clipPath id="clip0"><rect x="559" y="160" width="210" height="200"/></clipPath></defs><g clip-path="url(#clip0)" transform="translate(-559 -160)"><path d="M159.029 108.692C176.278 116.836 182.572 136.59 172.087 153.451 167.284 161.169 158.708 166.3 150.505 169.671 138.685 174.533 125.671 176.442 113.046 177.792 88.1614 180.454 62.3372 178.985 38.8611 169.783 33.7751 167.791 29.0323 165.226 24.9232 161.594 21.9626 158.984 19.2406 156.113 17.3315 152.63 7.48784 134.733 19.2853 116.969 34.4537 107.477 32.7161 102.831 32.5447 97.5807 34.7147 91.8162 35.7216 89.1465 37.1757 86.5215 38.9729 84.2917 43.0595 79.2357 48.5035 76.2376 54.0294 73.1205 52.7617 69.019 52.4931 64.6042 53.5595 60.0327 54.9318 54.1712 58.3695 49.7267 62.6352 45.9383 66.5876 42.4334 71.241 39.51 75.3948 36.4524 83.0237 30.8146 89.7502 23.8718 92.5989 14.6544 92.6363 14.55 92.6736 14.453 92.7182 14.3561 92.7034 13.3046 93.3895 12.3426 94.4336 12.0369 95.7012 11.664 97.0213 12.4023 97.3942 13.6626 98.3562 16.9737 99.0198 20.3816 99.5866 23.7749 100.824 31.2398 102.182 41.613 100.437 50.546 100.369 50.8593 100.31 51.165 100.243 51.4708 106.462 51.5827 112.622 51.9704 118.692 53.4769 124.218 54.8489 130.281 57.6605 134.42 61.7545 137.537 64.8419 139.61 68.6303 139.745 73.0823 140.088 73.0002 140.461 72.9928 140.833 73.0823 144.913 74.0517 148.902 75.4687 152.556 77.5343 164.324 84.1714 164.906 97.9826 159.022 108.706ZM36.5935 111.765C23.6027 120.042 13.0735 134.994 21.5147 150.326 23.1628 153.324 25.5343 155.763 28.0846 158.015 31.7686 161.266 36.0492 163.541 40.6056 165.331 63.3658 174.264 88.415 175.629 112.54 173.042 124.725 171.736 137.292 169.939 148.695 165.249 156.01 162.243 163.751 157.806 168.039 150.923 177.033 136.448 171.455 119.454 156.391 112.726 151.663 118.938 144.765 123.614 137.822 126.858 113.466 138.245 79.9974 136.761 55.4847 126.492 47.9304 123.33 40.6967 118.296 36.5877 111.756ZM55.8485 77.5652C51.0237 80.2649 46.251 82.8748 42.6863 87.2897 41.2024 89.1242 40.0092 91.2944 39.1814 93.4943 33.9761 107.305 45.5799 117.178 57.3327 122.1 80.6885 131.892 112.591 133.398 135.8 122.548 143.108 119.132 150.432 114.031 154.548 106.924 159.492 98.3707 159.708 87.0355 150.215 81.6805 146.949 79.8384 143.384 78.5782 139.738 77.7132 139.566 77.6683 139.395 77.6162 139.245 77.5415 139.111 78.0935 138.947 78.6528 138.753 79.2269 138.045 81.2851 136.971 83.2091 135.524 84.8497 133.615 87.0124 131.236 88.7649 128.768 90.2563 121.803 94.4696 113.614 96.2743 105.62 97.1321 93.5764 98.4297 81.2353 98.2136 70.3993 92.1953 64.314 88.8172 58.9894 83.694 55.8573 77.5639ZM94.5153 22.4249C90.7343 29.5989 84.8282 35.4157 78.2284 40.278 74.1865 43.261 69.645 46.0874 65.8045 49.4953 62.2696 52.6273 59.3464 56.2592 58.2128 61.1138 55.5431 72.5386 63.1869 82.7247 72.7175 88.0205 82.6806 93.5538 94.0458 93.5838 105.113 92.3906 112.428 91.6001 119.938 90.0192 126.308 86.1712 128.358 84.9333 130.357 83.5015 131.945 81.6892 132.974 80.5184 133.743 79.1389 134.25 77.6696 136.024 72.5017 134.294 68.3107 131.08 65.1338 127.538 61.6214 122.295 59.2723 117.56 58.1015 111.639 56.625 105.643 56.3191 99.5726 56.2222 99.3266 56.2222 99.0879 56.1775 98.8642 56.1028 97.2684 60.1745 94.7925 63.6871 91.1011 66.2151 90.0123 66.9608 88.5282 66.6775 87.7825 65.5962 87.0368 64.5074 87.3201 63.0233 88.4014 62.2776 92.6373 59.3693 94.7699 54.7531 95.7694 49.6224 97.3951 41.2553 96.0529 31.5382 94.8895 24.5503 94.7701 23.8419 94.6508 23.1334 94.5166 22.4175Z" fill="#FFFFFF" fill-rule="evenodd" transform="matrix(1 0 0 1.00087 568.545 163.842)"/><text fill="#FFFFFF" font-family="Arial,Arial_MSFontService,sans-serif" font-weight="700" font-size="5" transform="matrix(1.90909 0 0 1.91075 568.545 388)">Created by Firda Wahyu Dianti</text><text fill="#FFFFFF" font-family="Arial,Arial_MSFontService,sans-serif" font-weight="700" font-size="5" transform="matrix(1.90909 0 0 1.91075 568.545 398)">from Noun Project</text></g></svg>