<svg width="165" height="163" xmlns="http://www.w3.org/2000/svg" xmlns:xlink="http://www.w3.org/1999/xlink" xml:space="preserve" overflow="hidden"><defs><clipPath id="clip0"><rect x="571" y="11" width="165" height="163"/></clipPath></defs><g clip-path="url(#clip0)" transform="translate(-571 -11)"><path d="M111.719 48.125C111.719 45.2773 114.027 42.9688 116.875 42.9688L143.353 42.9688 147.123 69.6142C147.522 72.4336 145.56 75.0427 142.74 75.4421 139.921 75.8409 137.312 73.8788 136.912 71.0586L135.374 60.1832 96.9788 105.408 69.0016 77.8257 31.3586 120.295C29.4697 122.426 26.2109 122.623 24.0798 120.734 21.9487 118.845 21.7524 115.586 23.6413 113.455L68.498 62.8472 96.3071 90.2646 127.705 53.2812 116.875 53.2812C114.027 53.2812 111.719 50.9727 111.719 48.125Z" fill-rule="evenodd" transform="matrix(1 0 0 1 571 11)"/><text font-family="Arial,Arial_MSFontService,sans-serif" font-weight="700" font-size="5" transform="matrix(6.875 0 0 6.87503 571 279)">Created by Tadu Puasandi</text><text font-family="Arial,Arial_MSFontService,sans-serif" font-weight="700" font-size="5" transform="matrix(6.875 0 0 6.87503 571 314)">from the Noun Project</text></g></svg>