<svg width="206" height="206" xmlns="http://www.w3.org/2000/svg" xmlns:xlink="http://www.w3.org/1999/xlink" xml:space="preserve" overflow="hidden"><defs><clipPath id="clip0"><rect x="224" y="390" width="206" height="206"/></clipPath></defs><g clip-path="url(#clip0)" transform="translate(-224 -390)"><path d="M156.017 85.3961 155.308 84.2919C153.753 81.8626 152.146 79.3531 150.18 76.9018 148.809 75.1873 146.567 74.6896 144.605 75.6591 142.632 76.6309 141.62 78.803 142.162 81.0214 144.632 91.2561 146.494 101.684 139.943 106.879 139.465 107.257 138.19 108.062 136.637 107.307 134.99 106.51 129.614 102.037 129.614 77.8997 129.614 58.9719 123.84 41.6181 112.454 26.3243 107.173 19.2314 101.038 13.4556 94.2158 9.15931 92.1901 7.88647 89.7007 7.9186 87.7212 9.2416 85.7337 10.5727 84.7539 12.8714 85.1644 15.2423 87.2825 27.4748 87.2072 51.7365 62.9052 76.7813 39.1191 101.296 29.6592 127.829 36.2682 151.494 42.0772 172.291 60.3585 189.049 83.977 195.226 84.6675 195.407 85.4405 195.702 86.2326 195.999 89.019 197.043 93.236 198.629 95.1512 195.188 96.0718 193.536 95.0649 192.17 91.7283 187.643 82.0125 174.455 56.7368 140.155 87.0346 105.92 88.6436 127.69 100.673 139.68 110.472 149.445 122.552 161.484 131.292 170.191 118.739 191.203 118.295 191.66 117.977 192.156 117.713 192.566 117.614 192.718 117.52 192.869 117.421 193.006 116.886 193.74 116.896 194.738 117.446 195.461 118.594 196.971 119.907 197.352 121.021 197.352 121.769 197.352 122.428 197.181 122.886 197.061 123.086 197.009 123.282 196.952 123.476 196.922 144.253 193.578 162.258 176.776 168.278 155.112 174.9 131.29 170.889 108.485 156.017 85.3961ZM164.317 154.012C158.719 174.156 142.044 189.769 122.821 192.863 122.715 192.881 122.606 192.901 122.498 192.923 136.347 169.43 125.694 158.81 113.374 146.534 102.87 136.066 90.9654 124.201 90.9654 100.933 90.9654 100.102 90.4644 99.3508 89.6966 99.0336 88.9267 98.7125 88.0433 98.8911 87.4562 99.4793 49.5726 137.363 78.8104 177.041 88.4187 190.08 89.2147 191.163 90.027 192.265 90.604 193.104 89.6765 192.899 88.4097 192.423 87.678 192.148 86.7905 191.817 85.873 191.472 85.0178 191.247 62.8077 185.439 45.6458 169.784 40.2282 150.388 34.0288 128.19 43.1302 103.067 65.8563 79.6442 91.4261 53.2923 91.4672 27.543 89.2158 14.5397 89.0211 13.4174 89.7739 12.8152 90.0099 12.6585 90.2397 12.502 91.0699 12.0422 92.0254 12.6385 98.4156 16.6637 104.179 22.0944 109.155 28.7775 120.002 43.3487 125.502 59.8754 125.502 77.8997 125.502 96.6065 128.735 108.054 134.849 111.009 137.38 112.236 140.241 111.894 142.499 110.1 151.655 102.838 148.348 89.1302 146.137 79.9635 146.068 79.6825 146.165 79.4736 146.421 79.3472 146.745 79.1845 146.897 79.3792 146.972 79.4736 148.801 81.7543 150.349 84.1715 151.846 86.5083L152.56 87.6225C166.76 109.668 170.607 131.384 164.317 154.012Z" stroke="#FFFFFF" stroke-width="2.05576" fill="#FFFFFF" transform="matrix(1.00205 0 0 1 224 390)"/><text fill="#FFFFFF" font-family="Arial,Arial_MSFontService,sans-serif" font-weight="700" font-size="5" transform="matrix(2.06 0 0 2.05579 224 626)">Created by sahara junadir</text><text fill="#FFFFFF" font-family="Arial,Arial_MSFontService,sans-serif" font-weight="700" font-size="5" transform="matrix(2.06 0 0 2.05579 224 637)">from the Noun Project</text></g></svg>